<svg width="3799" height="1567" xmlns="http://www.w3.org/2000/svg" xmlns:xlink="http://www.w3.org/1999/xlink" xml:space="preserve" overflow="hidden"><defs><clipPath id="clip0"><rect x="330" y="779" width="3799" height="1567"/></clipPath><clipPath id="clip1"><rect x="330" y="779" width="3799" height="1567"/></clipPath></defs><g clip-path="url(#clip0)" transform="translate(-330 -779)"><g clip-path="url(#clip1)"><rect x="334" y="780" width="3795" height="1565" fill="#FFFFFF" fill-opacity="1"/><path d="M2701 1609C2701 1404.1 2874.94 1238 3089.5 1238 3304.06 1238 3478 1404.1 3478 1609 3478 1813.9 3304.06 1980 3089.5 1980 2874.94 1980 2701 1813.9 2701 1609Z" stroke="#C04F15" stroke-width="13.75" stroke-linecap="butt" stroke-linejoin="miter" stroke-miterlimit="8" stroke-opacity="1" fill="#FFC000" fill-rule="evenodd" fill-opacity="1"/><text fill="#000000" fill-opacity="1" font-family="Open Sans,Open Sans_MSFontService,sans-serif" font-style="normal" font-variant="normal" font-weight="700" font-stretch="normal" font-size="128" text-anchor="start" direction="ltr" writing-mode="lr-tb" unicode-bidi="normal" text-decoration="none" transform="matrix(1 0 0 1 2999.38 1653)">cel</text><path d="M2667.23 1316.19 2713.97 1338.44 2629.08 1516.78 2582.34 1494.53Z" fill="#156082" fill-rule="nonzero" fill-opacity="1"/><path d="M2499.3 1270.03 2512.2 1242.93 2713.76 1338.88 2700.86 1365.98Z" fill="#156082" fill-rule="nonzero" fill-opacity="1"/><path d="M2425.18 1419.72 2438.29 1392.19 2639.27 1487.85 2626.16 1515.39Z" fill="#156082" fill-rule="nonzero" fill-opacity="1"/><path d="M2638.58 1429.08 2651.89 1401.11 2739.53 1442.82 2726.21 1470.8Z" fill="#156082" fill-rule="nonzero" fill-opacity="1"/><rect x="1616.5" y="1288.5" width="221" height="78" stroke="#A02B93" stroke-width="6.875" stroke-linecap="butt" stroke-linejoin="miter" stroke-miterlimit="8" stroke-opacity="1" fill="#A02B93" fill-opacity="1"/><path d="M1622.65 1465.89C1574.96 1578.42 1437.08 1627.59 1314.68 1575.71 1240.8 1544.41 1166.93 1513.1 1093.05 1481.79 1121.84 1413.87 1150.62 1345.96 1179.41 1278.04 1227.1 1165.51 1364.98 1116.34 1487.38 1168.21 1609.78 1220.09 1670.34 1353.36 1622.65 1465.89Z" fill="#A02B93" fill-rule="evenodd" fill-opacity="1"/><path d="M1315.29 1871.42 1496.18 1743.88 1550.36 1820.72 1369.46 1948.26Z" stroke="#A02B93" stroke-width="6.875" stroke-linecap="butt" stroke-linejoin="miter" stroke-miterlimit="8" stroke-opacity="1" fill="#A02B93" fill-rule="nonzero" fill-opacity="1"/><path d="M1423.46 2013.01C1449.32 2132.46 1364.96 2252.1 1235.03 2280.23 1156.61 2297.21 1078.2 2314.19 999.778 2331.17 984.169 2259.07 968.559 2186.98 952.95 2114.88 927.087 1995.43 1011.45 1875.8 1141.38 1847.66 1271.3 1819.53 1397.6 1893.56 1423.46 2013.01Z" fill="#A02B93" fill-rule="evenodd" fill-opacity="1"/><text fill="#000000" fill-opacity="1" font-family="Open Sans,Open Sans_MSFontService,sans-serif" font-style="normal" font-variant="normal" font-weight="700" font-stretch="normal" font-size="83" text-anchor="start" direction="ltr" writing-mode="lr-tb" unicode-bidi="normal" text-decoration="none" transform="matrix(1 0 0 1 1448.82 2221)">histamin</text><text fill="#000000" fill-opacity="1" font-family="Open Sans,Open Sans_MSFontService,sans-serif" font-style="normal" font-variant="normal" font-weight="700" font-stretch="normal" font-size="83" text-anchor="start" direction="ltr" writing-mode="lr-tb" unicode-bidi="normal" text-decoration="none" transform="matrix(1 0 0 1 1816.06 2221)">e</text></g></g></svg>