<svg width="3800" height="1567" xmlns="http://www.w3.org/2000/svg" xmlns:xlink="http://www.w3.org/1999/xlink" xml:space="preserve" overflow="hidden"><defs><clipPath id="clip0"><rect x="302" y="770" width="3800" height="1567"/></clipPath><clipPath id="clip1"><rect x="302" y="770" width="3800" height="1567"/></clipPath></defs><g clip-path="url(#clip0)" transform="translate(-302 -770)"><g clip-path="url(#clip1)"><rect x="303" y="773" width="3795" height="1564" fill="#FFFFFF" fill-opacity="1"/><path d="M2491 1531C2491 1326.1 2665.16 1160 2880 1160 3094.84 1160 3269 1326.1 3269 1531 3269 1735.9 3094.84 1902 2880 1902 2665.16 1902 2491 1735.9 2491 1531Z" stroke="#C04F15" stroke-width="13.75" stroke-linecap="butt" stroke-linejoin="miter" stroke-miterlimit="8" stroke-opacity="1" fill="#FFC000" fill-rule="evenodd" fill-opacity="1"/><text fill="#000000" fill-opacity="1" font-family="Open Sans,Open Sans_MSFontService,sans-serif" font-style="normal" font-variant="normal" font-weight="700" font-stretch="normal" font-size="128" text-anchor="start" direction="ltr" writing-mode="lr-tb" unicode-bidi="normal" text-decoration="none" transform="matrix(1 0 0 1 2789.74 1575)">cel</text><path d="M2457.58 1238.54 2504.32 1260.79 2419.43 1439.13 2372.69 1416.89Z" fill="#156082" fill-rule="nonzero" fill-opacity="1"/><path d="M2289.65 1192.39 2302.55 1165.28 2504.11 1261.23 2491.21 1288.33Z" fill="#156082" fill-rule="nonzero" fill-opacity="1"/><path d="M2215.53 1342.08 2228.64 1314.54 2429.62 1410.2 2416.51 1437.74Z" fill="#156082" fill-rule="nonzero" fill-opacity="1"/><path d="M2428.93 1351.44 2442.25 1323.46 2529.88 1365.18 2516.57 1393.15Z" fill="#156082" fill-rule="nonzero" fill-opacity="1"/><path d="M2243.33 1169.46 2443.61 1263.66 2398.33 1359.92 2198.05 1265.72Z" stroke="#A02B93" stroke-width="6.875" stroke-linecap="butt" stroke-linejoin="miter" stroke-miterlimit="8" stroke-opacity="1" fill="#A02B93" fill-rule="nonzero" fill-opacity="1"/><path d="M2173.72 1333.48C2082.67 1415.01 1936.96 1400.82 1848.28 1301.78 1794.76 1242.01 1741.24 1182.23 1687.71 1122.46 1742.67 1073.25 1797.62 1024.04 1852.57 974.836 1943.62 893.307 2089.32 907.499 2178 1006.54 2266.69 1105.57 2264.76 1251.95 2173.72 1333.48Z" fill="#A02B93" fill-rule="evenodd" fill-opacity="1"/><path d="M1105.64 1793.77 1286.53 1666.24 1340.71 1743.08 1159.82 1870.61Z" stroke="#A02B93" stroke-width="6.875" stroke-linecap="butt" stroke-linejoin="miter" stroke-miterlimit="8" stroke-opacity="1" fill="#A02B93" fill-rule="nonzero" fill-opacity="1"/><path d="M1213.81 1935.36C1239.67 2054.81 1155.31 2174.45 1025.39 2202.58 946.967 2219.56 868.549 2236.54 790.13 2253.52 774.521 2181.42 758.911 2109.33 743.302 2037.24 717.439 1917.79 801.8 1798.15 931.728 1770.02 1061.66 1741.89 1187.95 1815.91 1213.81 1935.36Z" fill="#A02B93" fill-rule="evenodd" fill-opacity="1"/></g></g></svg>