<?xml version="1.0" encoding="UTF-8"?>
<svg width="3855" height="1623" overflow="hidden" version="1.1" xml:space="preserve" xmlns="http://www.w3.org/2000/svg"><g transform="translate(-302 -728)"><rect x="358" y="785" width="3795" height="1564" fill="#fff"/><rect x="303" y="730" width="3795" height="1564" fill="#fff"/><path d="m2491 1609c0-204.9 174.16-371 389-371s389 166.1 389 371-174.16 371-389 371-389-166.1-389-371z" fill="#ffc000" fill-rule="evenodd" stroke="#c04f15" stroke-miterlimit="8" stroke-width="13.75"/><text x="2789.74" y="1653" fill="#000000" font-family="'Open Sans', 'Open Sans_MSFontService', sans-serif" font-size="128px" font-weight="700" style="text-decoration-line:none">cel</text><g fill="#156082"><path d="m2457.6 1316.2 46.74 22.25-84.89 178.34-46.74-22.25z"/><path d="m2289.6 1270 12.9-27.1 201.56 95.95-12.9 27.1z"/><path d="m2215.5 1419.7 13.11-27.53 200.98 95.66-13.11 27.54z"/><path d="m2428.9 1429.1 13.32-27.97 87.63 41.71-13.31 27.98z"/></g><path d="m1541.5 1703.8 200.9-92.87 38.78 83.88-200.9 92.87z" fill="#a02b93" stroke="#a02b93" stroke-miterlimit="8" stroke-width="6.875"/><g fill-rule="evenodd"><path d="m1616.8 1851.3c3.93 122.15-100.6 224.64-233.47 228.92-80.19 2.58-160.39 5.16-240.58 7.74-2.37-73.73-4.74-147.46-7.12-221.18-3.93-122.16 100.6-224.65 233.47-228.92 132.87-4.28 243.77 91.28 247.7 213.44z" fill="#a02b93"/><path d="m1316.7 1417.9c-0.71 122.21-109.06 220.66-241.99 219.89-80.235-0.47-160.47-0.94-240.7-1.41 0.429-73.76 0.859-147.52 1.288-221.29 0.712-122.21 109.06-220.66 242-219.88 132.93 0.77 240.12 100.47 239.41 222.69z" fill="#002060"/><path d="m1233.6 1278 177.09 5.6-104.48 143.1z" fill="#002060" stroke="#002060" stroke-miterlimit="8" stroke-width="6.875"/></g><text x="641.95001" y="2037" fill="#000000" font-family="'Open Sans', 'Open Sans_MSFontService', sans-serif" font-size="83px" font-weight="700" style="text-decoration-line:none"><tspan x="641.95001" y="2037">moleculen</tspan><tspan x="641.95001" y="2140.75">= sleutels</tspan></text><text x="2093.9299" y="1118.983" fill="#000000" font-family="'Open Sans', 'Open Sans_MSFontService', sans-serif" font-size="83px" font-weight="700" style="text-decoration-line:none">eiwitreceptor = slot</text></g></svg>
