<svg width="3800" height="1567" xmlns="http://www.w3.org/2000/svg" xmlns:xlink="http://www.w3.org/1999/xlink" xml:space="preserve" overflow="hidden"><g transform="translate(-265 -646)"><g><rect x="267" y="647" width="3795" height="1565" fill="#FFFFFF" fill-opacity="1"/><path d="M2429 1639C2429 1457.3 2613.01 1310 2840 1310 3066.99 1310 3251 1457.3 3251 1639 3251 1820.7 3066.99 1968 2840 1968 2613.01 1968 2429 1820.7 2429 1639Z" stroke="#C04F15" stroke-width="13.75" stroke-linecap="butt" stroke-linejoin="miter" stroke-miterlimit="8" stroke-opacity="1" fill="#FFC000" fill-rule="evenodd" fill-opacity="1"/><text fill="#000000" fill-opacity="1" font-family="Open Sans,Open Sans_MSFontService,sans-serif" font-style="normal" font-variant="normal" font-weight="700" font-stretch="normal" font-size="128" text-anchor="start" direction="ltr" writing-mode="lr-tb" unicode-bidi="normal" text-decoration="none" transform="matrix(1 0 0 1 2750 1683)">cel</text><path d="M2386.74 1381.73 2436.12 1405.24 2360.9 1563.27 2311.52 1539.77Z" fill="#156082" fill-rule="nonzero" fill-opacity="1"/><path d="M2211.55 1328.27 2222.98 1304.26 2435.94 1405.63 2424.51 1429.64Z" fill="#156082" fill-rule="nonzero" fill-opacity="1"/><path d="M2145.47 1460.73 2157.09 1436.33 2369.43 1537.4 2357.81 1561.8Z" fill="#156082" fill-rule="nonzero" fill-opacity="1"/><path d="M2364.83 1483.43 2376.63 1458.64 2469.22 1502.71 2457.42 1527.5Z" fill="#156082" fill-rule="nonzero" fill-opacity="1"/><path d="M1419.2 1727.86 1597.23 1645.57 1639.88 1737.84 1461.86 1820.13Z" stroke="#A02B93" stroke-width="6.875" stroke-linecap="butt" stroke-linejoin="miter" stroke-miterlimit="8" stroke-opacity="1" fill="#A02B93" fill-rule="nonzero" fill-opacity="1"/><path d="M1517.01 1852.57C1520.49 1960.81 1409.52 2052.22 1269.14 2056.74 1184.41 2059.46 1099.69 2062.19 1014.96 2064.91 1012.86 1999.58 1010.76 1934.25 1008.66 1868.92 1005.17 1760.68 1116.15 1669.27 1256.53 1664.75 1396.91 1660.24 1513.53 1744.32 1517.01 1852.57Z" fill="#A02B93" fill-rule="evenodd" fill-opacity="1"/><path d="M1188.61 1470.1C1187.98 1578.39 1073.61 1665.52 933.165 1664.71 848.396 1664.21 763.628 1663.72 678.86 1663.23 679.24 1597.86 679.621 1532.5 680.001 1467.14 680.632 1358.84 794.999 1271.71 935.448 1272.53 1075.9 1273.34 1189.24 1361.8 1188.61 1470.1Z" fill="#002060" fill-rule="evenodd" fill-opacity="1"/><path d="M1107 1351.75 1287.91 1345 1171.35 1483.52Z" stroke="#002060" stroke-width="6.875" stroke-linecap="butt" stroke-linejoin="miter" stroke-miterlimit="8" stroke-opacity="1" fill="#002060" fill-rule="evenodd" fill-opacity="1"/><g><g><g><path d="M261.888 48.0584 106.154 195.275 31.3292 118.625 5.475 143.263 104.938 245.463 131.096 221.129 286.525 73.6084Z" fill="#92D050" fill-rule="nonzero" fill-opacity="1" transform="matrix(1.19178 0 0 1 1552 1822)"/></g></g></g><g><g><g><path d="M253.675 64.1791 227.821 38.325 146 120.146 64.1791 38.325 38.325 64.1791 120.146 146 38.325 227.821 64.1791 253.675 146 171.854 227.821 253.675 253.675 227.821 171.854 146Z" fill="#FF0000" fill-rule="nonzero" fill-opacity="1" transform="matrix(1.19521 0 0 1 1316 1234)"/></g></g></g><path d="M2266.5 1001.18 2478.1 1100.71 2426.62 1210.18 2215.02 1110.65Z" stroke="#A02B93" stroke-width="6.875" stroke-linecap="butt" stroke-linejoin="miter" stroke-miterlimit="8" stroke-opacity="1" fill="#A02B93" fill-rule="nonzero" fill-opacity="1"/><path d="M2170.55 1154.55C2074.35 1240.69 1932.67 1239.38 1854.08 1151.62 1806.66 1098.65 1759.23 1045.68 1711.8 992.717 1769.86 940.729 1827.92 888.741 1885.98 836.752 1982.17 750.615 2123.86 751.93 2202.44 839.688 2281.02 927.447 2266.74 1068.42 2170.55 1154.55Z" fill="#A02B93" fill-rule="evenodd" fill-opacity="1"/><g><g><g><path d="M261.887 48.0583 106.154 195.275 31.3291 118.625 5.475 143.262 104.937 245.462 131.096 221.129 286.525 73.6083Z" fill="#92D050" fill-rule="nonzero" fill-opacity="1" transform="matrix(1.19178 0 0 1 2355 804)"/></g></g></g><g><g><g><path d="M261.887 48.0583 106.154 195.275 31.3291 118.625 5.475 143.262 104.937 245.462 131.096 221.129 286.525 73.6083Z" fill="#92D050" fill-rule="nonzero" fill-opacity="1" transform="matrix(1.19178 0 0 1 2355 730)"/></g></g></g><text fill="#000000" fill-opacity="1" font-family="Open Sans,Open Sans_MSFontService,sans-serif" font-style="normal" font-variant="normal" font-weight="700" font-stretch="normal" font-size="83" text-anchor="start" direction="ltr" writing-mode="lr-tb" unicode-bidi="normal" text-decoration="none" transform="matrix(1 0 0 1 2660.64 1044)">antihistaminemedicijnen</text></g></g></svg>