<svg width="1595" height="899" xmlns="http://www.w3.org/2000/svg" xmlns:xlink="http://www.w3.org/1999/xlink" xml:space="preserve" overflow="hidden"><g transform="translate(-1682 -1090)"><g><path d="M2491 1609C2491 1404.1 2665.16 1238 2880 1238 3094.84 1238 3269 1404.1 3269 1609 3269 1813.9 3094.84 1980 2880 1980 2665.16 1980 2491 1813.9 2491 1609Z" stroke="#C04F15" stroke-width="13.75" stroke-linecap="butt" stroke-linejoin="miter" stroke-miterlimit="8" stroke-opacity="1" fill="#FFC000" fill-rule="evenodd" fill-opacity="1"/><text fill="#000000" fill-opacity="1" font-family="Open Sans,Open Sans_MSFontService,sans-serif" font-style="normal" font-variant="normal" font-weight="700" font-stretch="normal" font-size="128" text-anchor="start" direction="ltr" writing-mode="lr-tb" unicode-bidi="normal" text-decoration="none" transform="matrix(1 0 0 1 2789.74 1653)">ce</text><text fill="#000000" fill-opacity="1" font-family="Open Sans,Open Sans_MSFontService,sans-serif" font-style="normal" font-variant="normal" font-weight="700" font-stretch="normal" font-size="128" text-anchor="start" direction="ltr" writing-mode="lr-tb" unicode-bidi="normal" text-decoration="none" transform="matrix(1 0 0 1 2931.25 1653)">l</text><path d="M2457.58 1316.19 2504.32 1338.44 2419.43 1516.78 2372.69 1494.53Z" fill="#156082" fill-rule="nonzero" fill-opacity="1"/><path d="M2289.65 1270.03 2302.55 1242.93 2504.11 1338.88 2491.21 1365.98Z" fill="#156082" fill-rule="nonzero" fill-opacity="1"/><path d="M2215.53 1419.72 2228.64 1392.19 2429.62 1487.85 2416.51 1515.39Z" fill="#156082" fill-rule="nonzero" fill-opacity="1"/><path d="M2428.93 1429.08 2442.25 1401.11 2529.88 1442.82 2516.57 1470.8Z" fill="#156082" fill-rule="nonzero" fill-opacity="1"/><text fill="#000000" fill-opacity="1" font-family="Open Sans,Open Sans_MSFontService,sans-serif" font-style="normal" font-variant="normal" font-weight="700" font-stretch="normal" font-size="83" text-anchor="start" direction="ltr" writing-mode="lr-tb" unicode-bidi="normal" text-decoration="none" transform="matrix(1 0 0 1 1831.64 1197)">h</text><text fill="#000000" fill-opacity="1" font-family="Open Sans,Open Sans_MSFontService,sans-serif" font-style="normal" font-variant="normal" font-weight="700" font-stretch="normal" font-size="83" text-anchor="start" direction="ltr" writing-mode="lr-tb" unicode-bidi="normal" text-decoration="none" transform="matrix(1 0 0 1 1886.07 1197)">istaminereceptor </text></g></g></svg>