<svg width="2595" height="995" xmlns="http://www.w3.org/2000/svg" xmlns:xlink="http://www.w3.org/1999/xlink" xml:space="preserve" overflow="hidden"><g transform="translate(-682 -994)"><g><path d="M2491 1609C2491 1404.1 2665.16 1238 2880 1238 3094.84 1238 3269 1404.1 3269 1609 3269 1813.9 3094.84 1980 2880 1980 2665.16 1980 2491 1813.9 2491 1609Z" stroke="#C04F15" stroke-width="13.75" stroke-linecap="butt" stroke-linejoin="miter" stroke-miterlimit="8" stroke-opacity="1" fill="#FFC000" fill-rule="evenodd" fill-opacity="1"/><text fill="#000000" fill-opacity="1" font-family="Open Sans,Open Sans_MSFontService,sans-serif" font-style="normal" font-variant="normal" font-weight="700" font-stretch="normal" font-size="128" text-anchor="start" direction="ltr" writing-mode="lr-tb" unicode-bidi="normal" text-decoration="none" transform="matrix(1 0 0 1 2789.74 1653)">cel</text><path d="M2457.58 1316.19 2504.32 1338.44 2419.43 1516.78 2372.69 1494.53Z" fill="#156082" fill-rule="nonzero" fill-opacity="1"/><path d="M2289.65 1270.03 2302.55 1242.93 2504.11 1338.88 2491.21 1365.98Z" fill="#156082" fill-rule="nonzero" fill-opacity="1"/><path d="M2215.53 1419.72 2228.64 1392.19 2429.62 1487.85 2416.51 1515.39Z" fill="#156082" fill-rule="nonzero" fill-opacity="1"/><path d="M2428.93 1429.08 2442.25 1401.11 2529.88 1442.82 2516.57 1470.8Z" fill="#156082" fill-rule="nonzero" fill-opacity="1"/><path d="M2243.33 1247.1 2443.61 1341.31 2385.5 1464.84 2185.22 1370.64Z" stroke="#A02B93" stroke-width="6.875" stroke-linecap="butt" stroke-linejoin="miter" stroke-miterlimit="8" stroke-opacity="1" fill="#A02B93" fill-rule="nonzero" fill-opacity="1"/><path d="M2173.72 1411.13C2082.67 1492.66 1936.96 1478.46 1848.28 1379.43 1794.76 1319.65 1741.24 1259.88 1687.71 1200.11 1742.67 1150.9 1797.62 1101.69 1852.57 1052.48 1943.62 970.954 2089.32 985.147 2178 1084.18 2266.69 1183.22 2264.76 1329.6 2173.72 1411.13Z" fill="#A02B93" fill-rule="evenodd" fill-opacity="1"/><path d="M1092.17 1481.42 1296.45 1396.25 1348.99 1522.25 1144.71 1607.43Z" stroke="#A02B93" stroke-width="6.875" stroke-linecap="butt" stroke-linejoin="miter" stroke-miterlimit="8" stroke-opacity="1" fill="#A02B93" fill-rule="nonzero" fill-opacity="1"/><path d="M1166.99 1643.14C1166.27 1765.36 1057.93 1863.8 924.995 1863.03 844.761 1862.56 764.527 1862.1 684.293 1861.63 684.723 1787.86 685.152 1714.1 685.582 1640.34 686.294 1518.12 794.636 1419.68 927.572 1420.45 1060.51 1421.22 1167.7 1520.93 1166.99 1643.14Z" fill="#A02B93" fill-rule="evenodd" fill-opacity="1"/></g></g></svg>