<svg width="2540" height="1338" xmlns="http://www.w3.org/2000/svg" xmlns:xlink="http://www.w3.org/1999/xlink" xml:space="preserve" overflow="hidden"><g transform="translate(-737 -994)"><g><path d="M2491 1609C2491 1404.1 2665.16 1238 2880 1238 3094.84 1238 3269 1404.1 3269 1609 3269 1813.9 3094.84 1980 2880 1980 2665.16 1980 2491 1813.9 2491 1609Z" stroke="#C04F15" stroke-width="13.75" stroke-linecap="butt" stroke-linejoin="miter" stroke-miterlimit="8" stroke-opacity="1" fill="#FFC000" fill-rule="evenodd" fill-opacity="1"/><text fill="#000000" fill-opacity="1" font-family="Open Sans,Open Sans_MSFontService,sans-serif" font-style="normal" font-variant="normal" font-weight="700" font-stretch="normal" font-size="128" text-anchor="start" direction="ltr" writing-mode="lr-tb" unicode-bidi="normal" text-decoration="none" transform="matrix(1 0 0 1 2789.74 1653)">cel</text><path d="M2457.58 1316.19 2504.32 1338.44 2419.43 1516.78 2372.69 1494.53Z" fill="#156082" fill-rule="nonzero" fill-opacity="1"/><path d="M2289.65 1270.03 2302.55 1242.93 2504.11 1338.88 2491.21 1365.98Z" fill="#156082" fill-rule="nonzero" fill-opacity="1"/><path d="M2215.53 1419.72 2228.64 1392.19 2429.62 1487.85 2416.51 1515.39Z" fill="#156082" fill-rule="nonzero" fill-opacity="1"/><path d="M2428.93 1429.08 2442.25 1401.11 2529.88 1442.82 2516.57 1470.8Z" fill="#156082" fill-rule="nonzero" fill-opacity="1"/><path d="M2243.33 1247.1 2443.61 1341.31 2398.33 1437.57 2198.05 1343.36Z" stroke="#A02B93" stroke-width="6.875" stroke-linecap="butt" stroke-linejoin="miter" stroke-miterlimit="8" stroke-opacity="1" fill="#A02B93" fill-rule="nonzero" fill-opacity="1"/><path d="M2173.72 1411.13C2082.67 1492.66 1936.96 1478.46 1848.28 1379.43 1794.76 1319.65 1741.24 1259.88 1687.71 1200.11 1742.67 1150.9 1797.62 1101.69 1852.57 1052.48 1943.62 970.954 2089.32 985.147 2178 1084.18 2266.69 1183.22 2264.76 1329.6 2173.72 1411.13Z" fill="#A02B93" fill-rule="evenodd" fill-opacity="1"/><path d="M1105.64 1871.42 1286.53 1743.88 1340.71 1820.72 1159.82 1948.26Z" stroke="#A02B93" stroke-width="6.875" stroke-linecap="butt" stroke-linejoin="miter" stroke-miterlimit="8" stroke-opacity="1" fill="#A02B93" fill-rule="nonzero" fill-opacity="1"/><path d="M1213.81 2013.01C1239.67 2132.46 1155.31 2252.1 1025.39 2280.23 946.967 2297.21 868.549 2314.19 790.13 2331.17 774.521 2259.07 758.911 2186.98 743.302 2114.88 717.439 1995.43 801.8 1875.8 931.728 1847.66 1061.66 1819.53 1187.95 1893.56 1213.81 2013.01Z" fill="#A02B93" fill-rule="evenodd" fill-opacity="1"/></g></g></svg>