<svg width="2613" height="1141" xmlns="http://www.w3.org/2000/svg" xmlns:xlink="http://www.w3.org/1999/xlink" xml:space="preserve" overflow="hidden"><g transform="translate(-664 -967)"><g><path d="M2491 1609C2491 1404.1 2665.16 1238 2880 1238 3094.84 1238 3269 1404.1 3269 1609 3269 1813.9 3094.84 1980 2880 1980 2665.16 1980 2491 1813.9 2491 1609Z" stroke="#C04F15" stroke-width="13.75" stroke-linecap="butt" stroke-linejoin="miter" stroke-miterlimit="8" stroke-opacity="1" fill="#FFC000" fill-rule="evenodd" fill-opacity="1"/><text fill="#000000" fill-opacity="1" font-family="Open Sans,Open Sans_MSFontService,sans-serif" font-style="normal" font-variant="normal" font-weight="700" font-stretch="normal" font-size="128" text-anchor="start" direction="ltr" writing-mode="lr-tb" unicode-bidi="normal" text-decoration="none" transform="matrix(1 0 0 1 2789.74 1653)">cel</text><path d="M2457.58 1316.19 2504.32 1338.44 2419.43 1516.78 2372.69 1494.53Z" fill="#156082" fill-rule="nonzero" fill-opacity="1"/><path d="M2289.65 1270.03 2302.55 1242.93 2504.11 1338.88 2491.21 1365.98Z" fill="#156082" fill-rule="nonzero" fill-opacity="1"/><path d="M2215.53 1419.72 2228.64 1392.19 2429.62 1487.85 2416.51 1515.39Z" fill="#156082" fill-rule="nonzero" fill-opacity="1"/><path d="M2428.93 1429.08 2442.25 1401.11 2529.88 1442.82 2516.57 1470.8Z" fill="#156082" fill-rule="nonzero" fill-opacity="1"/><path d="M1541.5 1703.8 1742.4 1610.93 1782.54 1697.76 1581.64 1790.64Z" stroke="#A02B93" stroke-width="6.875" stroke-linecap="butt" stroke-linejoin="miter" stroke-miterlimit="8" stroke-opacity="1" fill="#A02B93" fill-rule="nonzero" fill-opacity="1"/><path d="M1616.78 1851.27C1620.71 1973.42 1516.18 2075.91 1383.31 2080.19 1303.12 2082.77 1222.92 2085.35 1142.73 2087.93 1140.36 2014.2 1137.98 1940.47 1135.61 1866.75 1131.68 1744.59 1236.21 1642.1 1369.08 1637.83 1501.95 1633.55 1612.85 1729.11 1616.78 1851.27Z" fill="#A02B93" fill-rule="evenodd" fill-opacity="1"/><path d="M1316.7 1417.89C1315.99 1540.1 1207.64 1638.55 1074.71 1637.78 994.475 1637.31 914.241 1636.84 834.007 1636.37 834.436 1562.61 834.866 1488.85 835.295 1415.08 836.007 1292.87 944.35 1194.42 1077.29 1195.2 1210.22 1195.97 1317.41 1295.67 1316.7 1417.89Z" fill="#002060" fill-rule="evenodd" fill-opacity="1"/><path d="M1233.6 1277.99 1410.69 1283.59 1306.21 1426.69Z" stroke="#002060" stroke-width="6.875" stroke-linecap="butt" stroke-linejoin="miter" stroke-miterlimit="8" stroke-opacity="1" fill="#002060" fill-rule="evenodd" fill-opacity="1"/><text fill="#000000" fill-opacity="1" font-family="Open Sans,Open Sans_MSFontService,sans-serif" font-style="normal" font-variant="normal" font-weight="700" font-stretch="normal" font-size="83" text-anchor="start" direction="ltr" writing-mode="lr-tb" unicode-bidi="normal" text-decoration="none" transform="matrix(1 0 0 1 738.05 2037)">sleutels</text><text fill="#000000" fill-opacity="1" font-family="Open Sans,Open Sans_MSFontService,sans-serif" font-style="normal" font-variant="normal" font-weight="700" font-stretch="normal" font-size="83" text-anchor="start" direction="ltr" writing-mode="lr-tb" unicode-bidi="normal" text-decoration="none" transform="matrix(1 0 0 1 2287.06 1155)">sloten</text><path d="M2841.32 970.146 2867.89 984.107 2764.06 1181.72 2737.49 1167.76Z" fill="#156082" fill-rule="nonzero" fill-opacity="1"/><path d="M2555.11 1054.68 2572.91 1029.92 2753.66 1159.82 2735.86 1184.59Z" fill="#156082" fill-rule="nonzero" fill-opacity="1"/><path d="M2730.7 1173.04 2761.02 1166.69 2780.91 1261.69 2750.58 1268.04Z" fill="#156082" fill-rule="nonzero" fill-opacity="1"/></g></g></svg>