<svg width="2975" height="1563" xmlns="http://www.w3.org/2000/svg" xmlns:xlink="http://www.w3.org/1999/xlink" xml:space="preserve" overflow="hidden"><g transform="translate(-829 -582)"><g><path d="M2491 1609C2491 1404.1 2665.16 1238 2880 1238 3094.84 1238 3269 1404.1 3269 1609 3269 1813.9 3094.84 1980 2880 1980 2665.16 1980 2491 1813.9 2491 1609Z" stroke="#C04F15" stroke-width="13.75" stroke-linecap="butt" stroke-linejoin="miter" stroke-miterlimit="8" stroke-opacity="1" fill="#FFC000" fill-rule="evenodd" fill-opacity="1"/><text fill="#000000" fill-opacity="1" font-family="Open Sans,Open Sans_MSFontService,sans-serif" font-style="normal" font-variant="normal" font-weight="700" font-stretch="normal" font-size="128" text-anchor="start" direction="ltr" writing-mode="lr-tb" unicode-bidi="normal" text-decoration="none" transform="matrix(1 0 0 1 2789.74 1653)">cel</text><path d="M2457.58 1316.19 2504.32 1338.44 2419.43 1516.78 2372.69 1494.53Z" fill="#156082" fill-rule="nonzero" fill-opacity="1"/><path d="M2289.65 1270.03 2302.55 1242.93 2504.11 1338.88 2491.21 1365.98Z" fill="#156082" fill-rule="nonzero" fill-opacity="1"/><path d="M2215.53 1419.72 2228.64 1392.19 2429.62 1487.85 2416.51 1515.39Z" fill="#156082" fill-rule="nonzero" fill-opacity="1"/><path d="M2428.93 1429.08 2442.25 1401.11 2529.88 1442.82 2516.57 1470.8Z" fill="#156082" fill-rule="nonzero" fill-opacity="1"/><path d="M1541.5 1703.8 1742.4 1610.93 1782.77 1698.26 1581.87 1791.13Z" stroke="#A02B93" stroke-width="6.875" stroke-linecap="butt" stroke-linejoin="miter" stroke-miterlimit="8" stroke-opacity="1" fill="#A02B93" fill-rule="nonzero" fill-opacity="1"/><path d="M1616.78 1851.27C1620.71 1973.42 1516.18 2075.91 1383.31 2080.19 1303.12 2082.77 1222.92 2085.35 1142.73 2087.93 1140.36 2014.2 1137.99 1940.47 1135.61 1866.75 1131.68 1744.59 1236.21 1642.1 1369.08 1637.83 1501.95 1633.55 1612.85 1729.11 1616.78 1851.27Z" fill="#A02B93" fill-rule="evenodd" fill-opacity="1"/><path d="M1316.7 1417.89C1315.99 1540.1 1207.64 1638.55 1074.71 1637.78 994.475 1637.31 914.241 1636.84 834.007 1636.37 834.436 1562.61 834.866 1488.85 835.295 1415.08 836.007 1292.87 944.35 1194.42 1077.29 1195.2 1210.22 1195.97 1317.41 1295.67 1316.7 1417.89Z" fill="#002060" fill-rule="evenodd" fill-opacity="1"/><path d="M1233.6 1277.99 1410.69 1283.59 1306.21 1426.69Z" stroke="#002060" stroke-width="6.875" stroke-linecap="butt" stroke-linejoin="miter" stroke-miterlimit="8" stroke-opacity="1" fill="#002060" fill-rule="evenodd" fill-opacity="1"/><g><g><g><path d="M1955.97 1869.31 1779.97 2035.69 1695.41 1949.06 1666.19 1976.91 1778.59 2092.41 1808.16 2064.91 1983.81 1898.19Z" fill="#92D050" fill-rule="nonzero" fill-opacity="1"/></g></g></g><g><g><g><path d="M1724.69 1223.53 1695.47 1194.31 1603 1286.78 1510.53 1194.31 1481.31 1223.53 1573.78 1316 1481.31 1408.47 1510.53 1437.69 1603 1345.22 1695.47 1437.69 1724.69 1408.47 1632.22 1316Z" fill="#FF0000" fill-rule="nonzero" fill-opacity="1"/></g></g></g><path d="M2341.62 898.038 2541.9 992.241 2483.79 1115.78 2283.51 1021.57Z" stroke="#A02B93" stroke-width="6.875" stroke-linecap="butt" stroke-linejoin="miter" stroke-miterlimit="8" stroke-opacity="1" fill="#A02B93" fill-rule="nonzero" fill-opacity="1"/><path d="M2272 1062.06C2180.95 1143.59 2035.25 1129.4 1946.57 1030.36 1893.05 970.589 1839.53 910.815 1786 851.041 1840.96 801.834 1895.91 752.626 1950.86 703.419 2041.91 621.89 2187.61 636.082 2276.29 735.119 2364.97 834.155 2363.05 980.533 2272 1062.06Z" fill="#A02B93" fill-rule="evenodd" fill-opacity="1"/><g><g><g><path d="M2715.97 720.312 2539.97 886.687 2455.41 800.062 2426.19 827.906 2538.59 943.406 2568.16 915.906 2743.81 749.187Z" fill="#92D050" fill-rule="nonzero" fill-opacity="1"/></g></g></g><g><g><g><path d="M2715.97 637.312 2539.97 803.688 2455.41 717.062 2426.19 744.906 2538.59 860.406 2568.16 832.906 2743.81 666.188Z" fill="#92D050" fill-rule="nonzero" fill-opacity="1"/></g></g></g><text fill="#000000" fill-opacity="1" font-family="Open Sans,Open Sans_MSFontService,sans-serif" font-style="normal" font-variant="normal" font-weight="700" font-stretch="normal" font-size="83" text-anchor="start" direction="ltr" writing-mode="lr-tb" unicode-bidi="normal" text-decoration="none" transform="matrix(1 0 0 1 2711.75 926)">antihistaminemedicijnen</text></g></g></svg>