<?xml version="1.0" encoding="UTF-8" standalone="no"?>
<!-- Created with Inkscape (http://www.inkscape.org/) -->

<svg
   version="1.1"
   id="svg132"
   width="3733.3333"
   height="2666.6665"
   viewBox="0 0 3733.3333 2666.6665"
   sodipodi:docname="19216563_Happy-man-sitting-on-scales-with-words-work-and-life.eps"
   xmlns:inkscape="http://www.inkscape.org/namespaces/inkscape"
   xmlns:sodipodi="http://sodipodi.sourceforge.net/DTD/sodipodi-0.dtd"
   xmlns="http://www.w3.org/2000/svg"
   xmlns:svg="http://www.w3.org/2000/svg">
  <defs
     id="defs136" />
  <sodipodi:namedview
     id="namedview134"
     pagecolor="#ffffff"
     bordercolor="#000000"
     borderopacity="0.25"
     inkscape:showpageshadow="2"
     inkscape:pageopacity="0.0"
     inkscape:pagecheckerboard="0"
     inkscape:deskcolor="#d1d1d1"
     showgrid="false" />
  <g
     id="g140"
     inkscape:groupmode="layer"
     inkscape:label="Page 1"
     transform="matrix(1.3333333,0,0,-1.3333333,0,2666.6666)">
    <g
       id="g142"
       transform="scale(0.1)">
      <path
         d="M 28000,0 H 0 V 20000 H 28000 V 0"
         style="fill:#ffffff;fill-opacity:1;fill-rule:nonzero;stroke:none"
         id="path144"
         inkscape:export-filename="work-life-balance.svg"
         inkscape:export-xdpi="96"
         inkscape:export-ydpi="96" />
      <path
         d="m 6046.3,4264.7 c 0,0 -2894.47,6636.3 -811.51,8114 1392.26,987.7 2867.98,-1189.6 4629.36,-37.8 1568.15,1025.5 -618.12,3608.9 1998.35,4284.7 2750.1,710.4 5003.2,-5042.3 7310.7,-4246.9 2800.1,965.2 5585.5,-994.1 3178.4,-8126.7 l -16305.3,12.7"
         style="fill:#d4e8ff;fill-opacity:1;fill-rule:nonzero;stroke:none"
         id="path146" />
      <path
         d="m 13378.3,18498.8 c -138.4,66.2 -282.7,111.4 -428.6,134.4 l 20.8,103.7 c 158.4,-25 314.6,-73.9 464.2,-145.4 z m -1298.4,0 -64.1,88.7 c 140.8,79.8 295.9,131.7 461,154.2 l 18.1,-104 c -148.6,-20.3 -288.3,-67.1 -415,-138.9 z m 1991.9,-542.1 c -103.8,115.4 -211,217.6 -318.5,303.7 l 79.7,78.1 c 112.3,-90 223.9,-196.3 331.7,-316.1 z m -2567.5,-80.4 -106.5,46.6 c 78,140 164.5,263.9 257.2,368.1 l 93.3,-65.1 c -87.5,-98.5 -169.6,-216.1 -244,-349.6 z m 3077.2,-625 c -78.1,130.5 -158,252.9 -237.3,363.9 l 100.4,56.3 c 80.9,-113.2 162.3,-238 241.9,-370.8 z m -3388.6,-163.9 -115.3,25.5 c 41.4,147.1 87.1,285.5 135.8,411.7 l 112.4,-34.1 c -47.5,-123.3 -92.3,-258.9 -132.9,-403.1 z m 3791,-601 c -63.8,136.1 -128.2,266.3 -191.3,387 l 107.8,44.3 c 63.8,-122 128.8,-253.5 193.3,-390.8 z m -3969.6,-228 -117.7,15.1 c 24.1,147.4 50.5,289.2 78.6,421.4 l 116.8,-19.5 c -27.8,-130.7 -53.9,-271 -77.7,-417 z m 4311.6,-562 c -57.4,142.1 -111.5,271.9 -165.4,396.9 l 111,37.6 c 54.2,-125.7 108.6,-256.2 166.3,-398.9 z m -4419.8,-279.4 -118.3,9.3 c 14.8,147.7 30.9,290.4 47.8,424 l 118.2,-11.7 c -16.9,-132.9 -32.9,-274.7 -47.7,-421.6 z m 10646.6,-177.7 c -147.2,55 -296.2,89.1 -442.8,101.2 l 11,104.9 c 158.8,-13.2 319.6,-49.9 478,-109 z m -1296.7,-129 -68.2,86.3 c 146.2,90.6 293.8,157.7 438.8,199.4 l 36.7,-100.1 c -133.8,-38.5 -270.8,-100.9 -407.3,-185.6 z M 15637.4,14894 c -59.1,156.6 -107.9,284.4 -153.4,402 l 112.5,34.1 c 45.6,-117.8 94.4,-245.8 153.6,-402.7 z m 6669.1,-131.2 c -114.5,103.9 -232.9,195.6 -352.1,272.5 l 69.9,85.1 c 124.6,-80.4 248.2,-176 367.2,-284 z M 6077.16,14592.6 c -148.29,65.4 -294.16,107.1 -433.54,124.1 l 16.13,104.3 c 152.22,-18.5 310.46,-63.6 470.36,-134.1 z m 4759.84,-22 -118.7,6.2 c 10.3,153.1 20.5,292.1 31.3,424.9 l 118.5,-7.5 c -10.7,-132.4 -20.9,-271 -31.1,-423.6 z m 8748.7,-41.4 -92.4,66.3 c 111.5,121.8 217.1,226.7 322.9,320.5 l 84.1,-74.4 c -102.9,-91.3 -205.8,-193.4 -314.6,-312.4 z m -14790.45,-32.2 -72.09,83.7 c 141.93,95.9 289.64,165.1 439.03,205.6 l 34.77,-100.7 c -135.87,-36.8 -271.03,-100.3 -401.71,-188.6 z m 18082.35,-397 c -85.2,123.1 -174.5,239.6 -265.4,346.1 l 94.8,63.5 c 93.2,-109.2 184.7,-228.5 271.9,-354.6 z m -16052.54,-4.5 c -121.46,104.8 -240.9,197.4 -354.98,275.1 l 72.47,83.5 c 117.72,-80.3 240.66,-175.5 365.42,-283.1 z m 9117.04,-7.3 c -54.6,141.5 -108,283 -153.1,402.9 l 112.7,33.3 c 45.1,-119.7 98.4,-261 152.8,-402.2 z m -11757.01,-214.3 -100.17,56.7 c 93.39,129.6 189.68,246.6 286.2,347.8 l 90.79,-67.9 c -93.13,-97.7 -186.26,-210.9 -276.82,-336.6 z m 14844.81,-29.7 -99.2,58.1 c 99.3,133.1 188.1,248.2 271.5,352 l 96.8,-61.1 c -82.6,-102.7 -170.6,-216.9 -269.1,-349 z m -8244,-122 -118.7,5.3 c 8,140.6 16,281.4 24.5,424.6 l 118.6,-5.5 c -8.4,-143.2 -16.4,-283.8 -24.4,-424.4 z m -3327.21,-254.3 c -107.84,118.6 -208.21,224.2 -306.86,322.7 l 88.9,69.9 c 99.91,-99.8 201.48,-206.6 310.52,-326.5 z M 23309.2,13353 c -63.9,131.9 -131.5,260 -200.9,380.7 l 105.9,47.8 c 70.6,-122.8 139.3,-253 204.2,-386.9 z m -7038.4,-65.7 c -53.8,119.7 -109.5,250.2 -170.1,399.1 l 111.8,35.7 c 60.2,-147.8 115.4,-277.2 168.7,-395.8 z m 2237.8,-155.7 -99.3,57.9 c 84.5,113.7 171.7,234.3 260,356 l 100,-56.9 c -88.5,-122.1 -175.8,-242.7 -260.7,-357 z m -14764.49,0 -108.73,42.5 c 65.24,130.9 134.76,259.5 208.64,385.2 l 105.38,-48.7 c -72.69,-123.7 -141.09,-250.2 -205.29,-379 z m 6988.99,-259.2 -118.6,6.8 c 9,123.4 18.2,262 28,423.9 l 118.7,-5.7 c -9.9,-162.2 -19.1,-301.2 -28.1,-425 z m -2695.81,-78.2 c -108.73,131.6 -199.34,239.7 -285.17,340.1 l 94.75,63.6 c 86.23,-100.9 177.21,-209.5 286.34,-341.6 z m 15598.51,-231.6 c -47.8,136.4 -98.9,270.7 -151.8,399.2 l 111.7,36 c 53.5,-130 105.2,-265.9 153.6,-404 z m -6940.7,-46.6 c -76.9,105.1 -153.1,228.9 -233,378.4 l 107.4,45 c 77.6,-145.2 151.3,-265 225.3,-366.2 z m 1237,-72.4 -87.3,71.4 c 90.1,86.5 186.7,193.1 295.3,326.1 l 96.3,-61.8 c -111.4,-136.4 -211,-246.2 -304.3,-335.7 z m -14517.92,-100.4 -113.65,30.8 c 47.22,136.8 99.03,272.9 153.98,404.4 l 111.46,-36.6 c -54.17,-129.6 -105.23,-263.7 -151.79,-398.6 z m 13888.72,-226.9 c -92.5,0 -183.3,24.5 -269.9,72.8 l 63.4,89.1 c 130,-72.7 257.9,-72.9 396,-14.9 l 51.1,-95 c -81.7,-34.5 -162.6,-52 -240.6,-52 z m -8700.82,-8.6 c -96.61,115.5 -196.8,237.7 -283.14,343.2 l 96.2,61.8 c 86.17,-105.3 186.17,-227.2 282.45,-342.4 z m 2044.72,-85.6 -117.9,13.4 c 18.3,125.7 34.6,263.3 50,420.8 l 118.4,-9.1 c -15.5,-158.9 -32,-298 -50.5,-425.1 z M 23880,11747.6 c -35.2,139.1 -73.2,277 -112.8,409.8 l 114.9,27 c 40,-134.2 78.3,-273.4 113.8,-413.7 z m -20694.47,-221.5 -116.67,20.1 c 30.78,140.5 65.62,280.7 103.54,416.5 l 115.37,-25.3 c -37.44,-134.1 -71.84,-272.5 -102.24,-411.3 z m 6016.93,-86.3 c -94.67,93.4 -195.85,200.9 -309.3,328.6 l 93.39,65.1 c 111.85,-125.9 211.4,-231.7 304.34,-323.4 z m 1211.14,-256.2 -105.8,47.9 c 54.4,94.4 102.5,225.4 142.9,389.3 l 116.1,-22.5 c -43.2,-175.2 -93.3,-310.8 -153.2,-414.7 z m -412.3,-250.5 c -165.14,23.1 -284.59,89.7 -450.05,204.7 l 75.12,81.6 c 144.95,-100.5 249.65,-160.8 387.63,-181.6 z m 14055.4,-14.8 c -24.7,140.5 -51.8,280.5 -80.6,416 l 116.7,19.5 c 29.1,-136.6 56.4,-277.7 81.4,-419.3 z m -21008.41,-226 -118.25,10.6 c 16.14,142.3 35.82,284.7 58.5,422.9 l 117.61,-15.1 c -22.43,-136.8 -41.9,-277.5 -57.86,-418.4 z m 21128.41,-612 c -15.9,141.4 -33.9,282.6 -53.4,419.8 l 117.9,13.2 c 19.7,-138.1 37.8,-280.3 53.8,-422.6 z m -21184.88,-229.8 -118.83,2.2 c 3.31,142.9 9.7,286.1 18.97,425.5 l 118.65,-6.2 c -9.2,-138.1 -15.52,-279.9 -18.79,-421.5 z m 21255.88,-613 c -8.1,141.5 -18.2,283.4 -29.8,421.8 l 118.5,7.8 c 11.7,-139.2 21.8,-281.9 30,-424.2 z m -21360.31,-236 c -7.88,142.6 -13.1,285.7 -15.53,425.4 l 118.83,1.6 c 2.4,-138.5 7.59,-280.4 15.4,-421.8 z m 21388.51,-609 c -1.4,141.6 -4.5,283.8 -9.1,422.7 l 118.8,3.1 c 4.6,-139.6 7.7,-282.6 9.1,-424.9 z M 2964.39,8153.2 c -17.72,141.7 -33.14,284.2 -45.84,423.6 l 118.46,8.5 c 12.61,-138.4 27.92,-279.8 45.5,-420.5 z m 21420.31,-609.5 -118.8,3 c 4.6,141.6 7.8,283.8 9.5,422.9 l 118.8,-1.1 c -1.7,-139.7 -4.9,-282.7 -9.5,-424.8 z M 3096.76,7310.5 c -26.43,140.3 -50.9,281.7 -72.73,420.5 l 117.71,14.5 c 21.68,-137.8 45.98,-278.3 72.23,-417.7 z M 24340.2,6695 l -118.6,6.7 c 10.1,140.9 18.9,283 26.2,422.4 l 118.7,-4.9 c -7.3,-140 -16.2,-282.7 -26.3,-424.2 z M 3279,6475.3 c -34.33,138.6 -66.99,278.7 -97.08,416.5 l 116.68,20 c 29.91,-136.9 62.37,-276.2 96.48,-413.9 z m 20985.6,-627 -118.4,9.9 c 15.1,140.9 29,282.8 41.4,421.5 l 118.5,-8.4 c -12.5,-139.2 -26.5,-281.5 -41.5,-423 z M 3507.5,5649.1 c -41.6,136 -81.94,274.6 -119.91,411.9 l 115.43,25 c 37.74,-136.4 77.84,-274.1 119.18,-409.4 z m 20652.9,-645.1 -117.9,12.9 c 19.6,140.4 38.2,281.8 55.3,420.3 l 118.1,-11.4 c -17.2,-139 -35.8,-280.9 -55.5,-421.8 z M 3781.58,4833.6 c -48.59,131.9 -96.66,268.6 -142.88,406.3 l 113.91,30 c 45.92,-136.8 93.68,-272.6 141.95,-403.6 l -112.98,-32.7"
         style="fill:#dce6ff;fill-opacity:1;fill-rule:nonzero;stroke:none"
         id="path148" />
      <path
         d="m 5098.96,5717.1 c -1202.94,-71.5 -1318.73,1751.5 -120.2,1836.8 1202.88,71.5 1318.69,-1751.5 120.2,-1836.8 z m 2507.74,414.7 v 1007.4 h -578.32 c -45.5,179.7 -114.79,350 -204.27,507.4 l 413.24,413.2 -712.29,712.3 -397.7,-397.7 C 5948.9,8486.5 5752.1,8572 5542.5,8625.1 v 594.8 H 4535.17 v -594.8 c -194.68,-49.3 -378.32,-126.6 -546.48,-227.2 l -374.16,374.2 -712.29,-712.3 374.16,-374.1 C 3175.82,7517.5 3098.59,7333.8 3049.29,7139.2 H 2470.96 V 6131.8 h 578.32 c 53.09,-209.6 138.54,-406.4 250.66,-584.8 l -397.7,-397.7 712.29,-712.3 413.25,413.2 c 157.4,-89.4 327.7,-158.7 507.39,-204.2 V 4051.1 H 5542.5 V 4646 c 194.68,49.3 378.32,126.5 546.48,227.1 l 436.08,-436.1 712.29,712.3 -436.08,436.1 c 100.59,168.1 177.81,351.8 227.12,546.4 h 578.31"
         style="fill:#fcb4b4;fill-opacity:1;fill-rule:nonzero;stroke:none"
         id="path150" />
      <path
         d="m 24913.6,6718.7 c -986.2,146.2 -825.3,-1174.5 -2231.1,-1174.5 -1285.3,0 -1696.5,5029.3 -2631.6,3591.7 -4794.2,-7370.4 -2010.3,3134.4 -5823.1,3267.9 -1724,60.3 -2872.8,-1778 -3296.4,-5032.8 C 10317.3,4428.6 8893.16,9615.3 7427.55,9133 6496.09,8826.5 6907.97,5209.3 5372.71,5265.2 3967.87,5316.4 4072.63,6864.9 3086.42,6718.7 2024.6,6561.3 1707.45,4223.7 1707.45,4223.7 H 26292.5 c 0,0 -317.1,2337.6 -1378.9,2495"
         style="fill:#eef7ff;fill-opacity:1;fill-rule:nonzero;stroke:none"
         id="path152" />
      <path
         d="m 22216.2,5110.6 c -1513.3,25.8 -1513,2276.8 0.1,2302.4 1513.2,-25.8 1513,-2276.8 -0.1,-2302.4 z m 2031.3,1000.2 v 302 h -266.9 c -18,213.2 -73.8,415.6 -160.6,600.6 l 230.9,133.3 -151,261.5 -231.1,-133.4 c -119.6,171.1 -268.5,320 -439.6,439.5 l 133.4,231.1 -261.5,151 -133.3,-230.8 c -185,86.8 -387.4,142.6 -600.6,160.6 v 266.9 h -302 v -266.9 c -213.2,-18 -415.6,-73.8 -600.6,-160.6 l -133.2,230.8 -261.6,-151 133.4,-231.1 c -171,-119.5 -320,-268.4 -439.5,-439.5 l -231.1,133.4 -151,-261.5 230.9,-133.3 c -86.9,-185 -142.6,-387.4 -160.7,-600.6 h -266.9 v -302 h 266.9 c 18.1,-213.2 73.8,-415.6 160.7,-600.6 l -230.9,-133.3 151,-261.5 231.1,133.4 c 119.5,-171.1 268.5,-320 439.5,-439.5 l -133.4,-231.1 261.6,-151 133.2,230.8 c 185,-86.8 387.4,-142.6 600.6,-160.6 v -266.9 h 302 v 266.9 c 213.2,18 415.6,73.8 600.6,160.6 l 133.3,-230.8 261.5,151 -133.4,231.1 c 171.1,119.5 320,268.4 439.6,439.5 l 231.1,-133.4 151,261.5 -230.9,133.3 c 86.8,185 142.6,387.4 160.6,600.6 h 266.9"
         style="fill:#8a9edd;fill-opacity:1;fill-rule:nonzero;stroke:none"
         id="path154" />
      <path
         d="m 24040.2,5289.1 c -907.3,62.4 -759.2,-501.5 -2052.5,-501.5 -1182.4,0 -1149.9,1263.9 -1941.2,1532.5 -1457.2,494.6 -2658.5,-2008.9 -3223.4,-752.4 -1073,3333.9 -4202.4,5005.8 -5646.2,0 C 10612,4311.2 9290.89,6553.2 7953.51,6320.1 7130.29,6176.6 7194.72,4787.6 6012.28,4787.6 4719,4787.6 4867.06,5351.5 3959.77,5289.1 2982.92,5221.9 2691.15,4223.7 2691.15,4223.7 H 25308.9 c 0,0 -291.8,998.2 -1268.7,1065.4"
         style="fill:#dce6ff;fill-opacity:1;fill-rule:nonzero;stroke:none"
         id="path156" />
      <path
         d="m 1725.73,4223.7 c 0,0 -172.49,-688.1 542.09,-860.4 977.39,-235.6 6714.54,-854.8 5320.78,-1325.3 -786.77,-265.6 401.64,-626.2 4233.8,-759 3832.2,-132.8 10407.9,387.5 8196.6,1157.4 -2211.3,769.9 6798.2,185.9 6249.4,1787.3 H 1725.73"
         style="fill:#cfddf9;fill-opacity:1;fill-rule:nonzero;stroke:none"
         id="path158" />
      <path
         d="M 5248.11,15740.2 H 4696.1 c -11.77,0 -21.89,-8.3 -24.07,-19.9 l -180.43,-953.6 -264.99,955.6 c -2.95,10.6 -12.61,17.9 -23.62,17.9 H 3650.1 c -11.02,0 -20.69,-7.3 -23.62,-17.9 l -264.26,-956.7 -180.2,954.7 c -2.18,11.6 -12.3,19.9 -24.08,19.9 h -554.88 c -7.44,0 -14.47,-3.3 -19.12,-9.1 -4.65,-5.8 -6.42,-13.4 -4.8,-20.7 l 420.62,-1890.6 c 2.49,-11.2 12.43,-19.2 23.92,-19.2 h 572.88 c 11.01,0 20.67,7.3 23.61,18 l 306.74,1105.4 307.95,-1105.5 c 2.96,-10.6 12.61,-17.9 23.61,-17.9 h 572.89 c 11.5,0 21.45,8 23.92,19.2 l 416.76,1890.6 c 1.6,7.3 -0.18,14.9 -4.83,20.7 -4.65,5.8 -11.67,9.1 -19.1,9.1"
         style="fill:#f49f9f;fill-opacity:1;fill-rule:nonzero;stroke:none"
         id="path160" />
      <path
         d="m 6030.2,15164.6 c 67.09,78.4 153.81,116.5 265.1,116.5 116.58,0 206.1,-37.5 273.65,-114.8 67.44,-77.1 101.63,-202.9 101.63,-374 0,-204.5 -32.77,-347.2 -97.41,-423.9 -64.48,-76.6 -153.69,-113.8 -272.72,-113.8 -115.6,0 -204.2,38.1 -270.86,116.4 -66.72,78.5 -100.55,211.5 -100.55,395.5 0,185.7 34.03,319.7 101.16,398.1 z m 266.38,607.9 c -312.23,0 -559.74,-89.2 -735.65,-265.1 -175.92,-176 -265.11,-424.3 -265.11,-738.3 0,-224.4 44.97,-414.3 133.66,-564.4 88.93,-150.6 206.76,-262.3 350.2,-332 142.41,-69.2 324.13,-104.3 540.11,-104.3 213.05,0 393.89,40.7 537.5,121.1 144.12,80.6 255.86,195.1 332.14,340.1 75.89,144.3 114.37,331.1 114.37,555 0,309.7 -88.35,554.4 -262.59,727.3 -174.2,172.9 -424.73,260.6 -744.63,260.6"
         style="fill:#f49f9f;fill-opacity:1;fill-rule:nonzero;stroke:none"
         id="path162" />
      <path
         d="m 8213,15309.5 h 232.13 c 100.15,0 168.17,-14.6 202.13,-43.2 33.21,-28.1 49.35,-67.9 49.35,-121.9 0,-36 -10.36,-67 -31.67,-94.7 -20.96,-27.2 -47.18,-43.6 -80.75,-50.3 -92.62,-20.8 -132.36,-25.2 -149.38,-25.2 H 8213 Z m 987.38,-925.6 c -14.66,29.3 -42.35,69.2 -84.66,121.9 -42.61,53 -74.73,87 -98.09,103.8 -21.34,15.6 -49.61,30.8 -85.54,45.9 54.73,16.6 100.58,35.9 136.86,57.8 81.44,49.2 146.36,114.4 192.97,193.6 46.77,79.6 70.48,175.1 70.48,283.9 0,125 -30.98,232.7 -92.1,320.4 -61.33,87.9 -143.22,148.9 -243.38,181.4 -97.43,31.6 -239.26,47.6 -421.54,47.6 H 7601.7 c -13.53,0 -24.5,-10.9 -24.5,-24.5 v -1890.6 c 0,-13.5 10.97,-24.5 24.5,-24.5 h 586.79 c 13.53,0 24.51,11 24.51,24.5 v 742.8 h 27.07 c 48.62,0 90.88,-12.9 128.8,-39.2 27.73,-20 60.85,-66.2 98.55,-137.5 l 312.28,-577.8 c 4.27,-7.9 12.55,-12.8 21.55,-12.8 h 660.11 c 8.55,0 16.49,4.5 20.93,11.8 4.45,7.3 4.77,16.4 0.85,24 l -282.76,547.5"
         style="fill:#f49f9f;fill-opacity:1;fill-rule:nonzero;stroke:none"
         id="path164" />
      <path
         d="m 10965,14998.7 676.7,700 c 6.8,7.1 8.8,17.5 5,26.6 -3.9,9.1 -12.8,14.9 -22.6,14.9 h -777 c -7.2,0 -13.9,-3.1 -18.6,-8.5 l -568.8,-664.2 v 648.2 c 0,13.6 -11,24.5 -24.5,24.5 h -584.26 c -13.53,0 -24.51,-10.9 -24.51,-24.5 v -1890.6 c 0,-13.5 10.98,-24.5 24.51,-24.5 h 584.26 c 13.5,0 24.5,11 24.5,24.5 v 451.5 l 271.2,284.2 382.9,-746.9 c 4.2,-8.1 12.6,-13.3 21.8,-13.3 h 719.4 c 8.9,0 17.1,4.8 21.4,12.5 4.4,7.8 4.2,17.2 -0.5,24.8 l -710.9,1160.8"
         style="fill:#f49f9f;fill-opacity:1;fill-rule:nonzero;stroke:none"
         id="path166" />
      <path
         d="M 5148.11,15740.2 H 4596.1 c -11.77,0 -21.89,-8.3 -24.07,-19.9 l -180.43,-953.6 -264.99,955.6 c -2.95,10.6 -12.61,17.9 -23.62,17.9 H 3550.1 c -11.02,0 -20.69,-7.3 -23.62,-17.9 l -264.26,-956.7 -180.2,954.7 c -2.18,11.6 -12.3,19.9 -24.08,19.9 h -554.88 c -7.44,0 -14.47,-3.3 -19.12,-9.1 -4.65,-5.8 -6.42,-13.4 -4.8,-20.7 l 420.62,-1890.6 c 2.49,-11.2 12.43,-19.2 23.92,-19.2 h 572.88 c 11.01,0 20.67,7.3 23.61,18 l 306.74,1105.4 307.95,-1105.5 c 2.96,-10.6 12.61,-17.9 23.61,-17.9 h 572.89 c 11.5,0 21.45,8 23.92,19.2 l 416.76,1890.6 c 1.6,7.3 -0.18,14.9 -4.83,20.7 -4.65,5.8 -11.67,9.1 -19.1,9.1"
         style="fill:#fcb4b4;fill-opacity:1;fill-rule:nonzero;stroke:none"
         id="path168" />
      <path
         d="m 5930.2,15164.6 c 67.09,78.4 153.81,116.5 265.1,116.5 116.58,0 206.1,-37.5 273.65,-114.8 67.44,-77.1 101.63,-202.9 101.63,-374 0,-204.5 -32.77,-347.2 -97.41,-423.9 -64.48,-76.6 -153.69,-113.8 -272.72,-113.8 -115.6,0 -204.2,38.1 -270.86,116.4 -66.72,78.5 -100.55,211.5 -100.55,395.5 0,185.7 34.03,319.7 101.16,398.1 z m 266.38,607.9 c -312.23,0 -559.74,-89.2 -735.65,-265.1 -175.92,-176 -265.11,-424.3 -265.11,-738.3 0,-224.4 44.97,-414.3 133.66,-564.4 88.93,-150.6 206.76,-262.3 350.2,-332 142.41,-69.2 324.13,-104.3 540.11,-104.3 213.05,0 393.89,40.7 537.5,121.1 144.12,80.6 255.86,195.1 332.14,340.1 75.89,144.3 114.37,331.1 114.37,555 0,309.7 -88.35,554.4 -262.59,727.3 -174.2,172.9 -424.73,260.6 -744.63,260.6"
         style="fill:#fcb4b4;fill-opacity:1;fill-rule:nonzero;stroke:none"
         id="path170" />
      <path
         d="m 8113,15309.5 h 232.13 c 100.15,0 168.17,-14.6 202.13,-43.2 33.21,-28.1 49.35,-67.9 49.35,-121.9 0,-36 -10.36,-67 -31.67,-94.7 -20.96,-27.2 -47.18,-43.6 -80.75,-50.3 -92.62,-20.8 -132.36,-25.2 -149.38,-25.2 H 8113 Z m 987.38,-925.6 c -14.66,29.3 -42.35,69.2 -84.66,121.9 -42.61,53 -74.73,87 -98.09,103.8 -21.34,15.6 -49.61,30.8 -85.54,45.9 54.73,16.6 100.58,35.9 136.86,57.8 81.44,49.2 146.36,114.4 192.97,193.6 46.77,79.6 70.48,175.1 70.48,283.9 0,125 -30.98,232.7 -92.1,320.4 -61.33,87.9 -143.22,148.9 -243.38,181.4 -97.43,31.6 -239.26,47.6 -421.54,47.6 H 7501.7 c -13.53,0 -24.5,-10.9 -24.5,-24.5 v -1890.6 c 0,-13.5 10.97,-24.5 24.5,-24.5 h 586.79 c 13.53,0 24.51,11 24.51,24.5 v 742.8 h 27.07 c 48.62,0 90.88,-12.9 128.8,-39.2 27.73,-20 60.85,-66.2 98.55,-137.5 l 312.28,-577.8 c 4.27,-7.9 12.55,-12.8 21.55,-12.8 h 660.11 c 8.55,0 16.49,4.5 20.93,11.8 4.45,7.3 4.77,16.4 0.85,24 l -282.76,547.5"
         style="fill:#fcb4b4;fill-opacity:1;fill-rule:nonzero;stroke:none"
         id="path172" />
      <path
         d="m 10865,14998.7 676.7,700 c 6.8,7.1 8.8,17.5 5,26.6 -3.9,9.1 -12.8,14.9 -22.6,14.9 h -777 c -7.2,0 -13.9,-3.1 -18.6,-8.5 l -568.8,-664.2 v 648.2 c 0,13.6 -11,24.5 -24.5,24.5 h -584.26 c -13.53,0 -24.51,-10.9 -24.51,-24.5 v -1890.6 c 0,-13.5 10.98,-24.5 24.51,-24.5 h 584.26 c 13.5,0 24.5,11 24.5,24.5 v 451.5 l 271.2,284.2 382.9,-746.9 c 4.2,-8.1 12.6,-13.3 21.8,-13.3 h 719.4 c 8.9,0 17.1,4.8 21.4,12.5 4.4,7.8 4.2,17.2 -0.5,24.8 l -710.9,1160.8"
         style="fill:#fcb4b4;fill-opacity:1;fill-rule:nonzero;stroke:none"
         id="path174" />
      <path
         d="m 18791,14315.2 h -887.3 v 1400.5 c 0,13.6 -11,24.5 -24.5,24.5 H 17295 c -13.6,0 -24.5,-10.9 -24.5,-24.5 v -1890.6 c 0,-13.5 10.9,-24.5 24.5,-24.5 h 1496 c 13.5,0 24.5,11 24.5,24.5 v 465.6 c 0,13.5 -11,24.5 -24.5,24.5"
         style="fill:#f49f9f;fill-opacity:1;fill-rule:nonzero;stroke:none"
         id="path176" />
      <path
         d="m 19665.3,15740.2 h -585.5 c -13.5,0 -24.5,-10.9 -24.5,-24.5 v -1890.6 c 0,-13.5 11,-24.5 24.5,-24.5 h 585.5 c 13.6,0 24.5,11 24.5,24.5 v 1890.6 c 0,13.6 -10.9,24.5 -24.5,24.5"
         style="fill:#f49f9f;fill-opacity:1;fill-rule:nonzero;stroke:none"
         id="path178" />
      <path
         d="m 21531.5,15740.2 h -1444.4 c -13.6,0 -24.6,-10.9 -24.6,-24.5 v -1890.6 c 0,-13.5 11,-24.5 24.6,-24.5 h 586.7 c 13.6,0 24.5,11 24.5,24.5 v 748 h 708.1 c 13.5,0 24.5,11 24.5,24.5 v 381.7 c 0,13.6 -11,24.5 -24.5,24.5 h -708.1 v 281.2 h 833.2 c 13.5,0 24.5,10.9 24.5,24.5 v 406.2 c 0,13.6 -11,24.5 -24.5,24.5"
         style="fill:#f49f9f;fill-opacity:1;fill-rule:nonzero;stroke:none"
         id="path180" />
      <path
         d="m 23438.8,14277.8 h -984 v 323.7 h 884.7 c 13.6,0 24.5,10.9 24.5,24.5 v 385.6 c 0,13.5 -10.9,24.5 -24.5,24.5 h -884.7 v 251.5 h 955.7 c 13.5,0 24.5,10.9 24.5,24.5 v 403.6 c 0,13.6 -11,24.5 -24.5,24.5 h -1565.7 c -13.5,0 -24.5,-10.9 -24.5,-24.5 v -1890.6 c 0,-13.5 11,-24.5 24.5,-24.5 h 1594 c 13.6,0 24.5,11 24.5,24.5 v 428.2 c 0,13.5 -10.9,24.5 -24.5,24.5"
         style="fill:#f49f9f;fill-opacity:1;fill-rule:nonzero;stroke:none"
         id="path182" />
      <path
         d="m 18691,14315.2 h -887.3 v 1400.5 c 0,13.6 -11,24.5 -24.5,24.5 H 17195 c -13.6,0 -24.5,-10.9 -24.5,-24.5 v -1890.6 c 0,-13.5 10.9,-24.5 24.5,-24.5 h 1496 c 13.5,0 24.5,11 24.5,24.5 v 465.6 c 0,13.5 -11,24.5 -24.5,24.5"
         style="fill:#fcb4b4;fill-opacity:1;fill-rule:nonzero;stroke:none"
         id="path184" />
      <path
         d="m 19565.3,15740.2 h -585.5 c -13.5,0 -24.5,-10.9 -24.5,-24.5 v -1890.6 c 0,-13.5 11,-24.5 24.5,-24.5 h 585.5 c 13.6,0 24.5,11 24.5,24.5 v 1890.6 c 0,13.6 -10.9,24.5 -24.5,24.5"
         style="fill:#fcb4b4;fill-opacity:1;fill-rule:nonzero;stroke:none"
         id="path186" />
      <path
         d="m 21431.5,15740.2 h -1444.4 c -13.6,0 -24.6,-10.9 -24.6,-24.5 v -1890.6 c 0,-13.5 11,-24.5 24.6,-24.5 h 586.7 c 13.6,0 24.5,11 24.5,24.5 v 748 h 708.1 c 13.5,0 24.5,11 24.5,24.5 v 381.7 c 0,13.6 -11,24.5 -24.5,24.5 h -708.1 v 281.2 h 833.2 c 13.5,0 24.5,10.9 24.5,24.5 v 406.2 c 0,13.6 -11,24.5 -24.5,24.5"
         style="fill:#fcb4b4;fill-opacity:1;fill-rule:nonzero;stroke:none"
         id="path188" />
      <path
         d="m 23338.8,14277.8 h -984 v 323.7 h 884.7 c 13.6,0 24.5,10.9 24.5,24.5 v 385.6 c 0,13.5 -10.9,24.5 -24.5,24.5 h -884.7 v 251.5 h 955.7 c 13.5,0 24.5,10.9 24.5,24.5 v 403.6 c 0,13.6 -11,24.5 -24.5,24.5 h -1565.7 c -13.5,0 -24.5,-10.9 -24.5,-24.5 v -1890.6 c 0,-13.5 11,-24.5 24.5,-24.5 h 1594 c 13.6,0 24.5,11 24.5,24.5 v 428.2 c 0,13.5 -10.9,24.5 -24.5,24.5"
         style="fill:#fcb4b4;fill-opacity:1;fill-rule:nonzero;stroke:none"
         id="path190" />
      <path
         d="m 9145.25,3179.7 h 9044.95 c 0,543.5 -220.3,1035.6 -576.4,1391.9 -356.3,356.1 -848.3,576.5 -1391.8,576.5 h -5108.4 c -1087.1,0 -1968.35,-881.3 -1968.35,-1968.4"
         style="fill:#7689d6;fill-opacity:1;fill-rule:nonzero;stroke:none"
         id="path192" />
      <path
         d="m 24864.6,13484.2 h -9134.8 c 0,-1264.5 1876.2,-2299.5 4251.1,-2384.4 v -487.4 c -269.6,-95.3 -483.2,-309 -578.5,-578.7 h -4545.6 c -139.6,526.1 -619,913.9 -1189,913.9 -570.1,0 -1049.5,-387.8 -1189.1,-913.9 H 7933.28 c -95.31,269.6 -308.98,483.3 -578.6,578.6 v 487.5 c 2374.92,85 4251.02,1119.9 4251.02,2384.4 H 2470.96 c 0,-1264.5 1876.12,-2299.4 4251.04,-2384.4 v -487.5 c -368.58,-130.3 -632.67,-481.7 -632.67,-894.9 0,-524.1 424.88,-949 949.01,-949 413.19,0 764.65,264.1 894.94,632.6 h 4545.52 c 86.5,-325.9 303.3,-598.8 591.4,-759.1 V 5148.1 h -1956.6 c -1087.1,0 -1968.35,-881.3 -1968.35,-1968.4 h 8615.85 c -95.1,312.9 -266.2,592.8 -491.5,818.3 -356.2,356.1 -848.3,576.5 -1391.8,576.5 h -1612.5 v 4067.4 c 288.1,160.3 504.9,433.2 591.4,759.1 h 4545.6 c 130.3,-368.5 481.7,-632.7 894.9,-632.7 524.2,0 949,425 949,949.1 0,413.3 -264.1,764.8 -632.7,895 v 487.4 c 2374.9,84.9 4251.1,1119.9 4251.1,2384.4"
         style="fill:#8a9edd;fill-opacity:1;fill-rule:nonzero;stroke:none"
         id="path194" />
      <path
         d="m 20613.5,10142.4 c 140.4,-367.5 178.2,-879.5 -316.3,-1374.1 524.2,0 949,425 949,949.1 0,413.3 -264.1,764.8 -632.7,895 v 487.4 c 2374.9,84.9 4251.1,1119.9 4251.1,2384.4 H 23510 c 0,0 -854,-1407.6 -2896.5,-2265.4 -102.5,-43 -207.9,-84.7 -316.3,-124.7 v -427.7 c 0,0 195.8,-208.8 316.3,-524"
         style="fill:#7689d6;fill-opacity:1;fill-rule:nonzero;stroke:none"
         id="path196" />
      <path
         d="m 7354.6,10142.4 c 140.42,-367.5 178.16,-879.5 -316.28,-1374.1 524.16,0 948.97,425 948.97,949.1 0,413.3 -264.09,764.8 -632.69,895 v 487.4 c 2374.97,84.9 4251.1,1119.9 4251.1,2384.4 h -1354.6 c 0,0 -854,-1407.6 -2896.5,-2265.4 -102.45,-43 -207.87,-84.7 -316.28,-124.7 v -427.7 c 0,0 195.83,-208.8 316.28,-524"
         style="fill:#7689d6;fill-opacity:1;fill-rule:nonzero;stroke:none"
         id="path198" />
      <path
         d="M 13667.8,8487.2 V 4574.5 h 597.5 v 4067.4 c 377.4,210 632.7,612.9 632.7,1075.5 0,679.4 -550.8,1230.2 -1230.2,1230.2 0,0 512.8,-527.6 537.9,-1230.2 13.7,-377.8 -113.8,-806.1 -537.9,-1230.2"
         style="fill:#7689d6;fill-opacity:1;fill-rule:nonzero;stroke:none"
         id="path200" />
      <path
         d="m 14894.9,8305.8 c -39.2,-121.5 42.3,-58.1 -140.2,-75.1 -38.3,-3.5 -119,-3.4 -81.2,76.6 29.7,91.3 -6.1,341 11.9,435.1 81.7,420.7 409.3,182.2 209.5,-436.6"
         style="fill:#ed8569;fill-opacity:1;fill-rule:nonzero;stroke:none"
         id="path202" />
      <path
         d="m 15101.8,8600.7 c -16.1,-71.2 -27.8,-113.8 -28.7,-118.1 0,0 -231.8,-24 -529.3,53 37.8,397.1 114.3,1134.7 -154.5,1408.6 -63.8,52.4 -224.4,191.3 -345.6,279.9 -306.6,188.8 -772.8,357.3 -873.9,674.2 180.8,54.4 559,168.4 741.6,223.4 1411.4,-298.4 1419.8,-1596.1 1190.4,-2521"
         style="fill:#1d3f70;fill-opacity:1;fill-rule:nonzero;stroke:none"
         id="path204" />
      <path
         d="m 14579.6,8998.5 c 18.5,659.9 -28,886 -535.9,1225.6 l -194.3,601.7 c 657.7,-278 1164.6,-1031.5 730.2,-1827.3"
         style="fill:#163356;fill-opacity:1;fill-rule:nonzero;stroke:none"
         id="path206" />
      <path
         d="m 14002.3,7980.6 c -66.2,-102.2 12.7,-132.9 -127.5,-76 -91.7,44.9 -122.3,56.6 -84.3,140.3 31.5,100.9 69.9,296.2 94.1,398.9 63.8,313.7 475.6,89.1 117.7,-463.2"
         style="fill:#f99370;fill-opacity:1;fill-rule:nonzero;stroke:none"
         id="path208" />
      <path
         d="m 14582.4,9104.6 c -104.8,-374.6 -248.3,-663.2 -372.8,-955.4 0,0 -373.4,13.8 -539.9,228.6 109.3,287.9 306.9,849.1 197.7,1293.6 -45,163.6 -178.7,426.4 -641.3,613.7 -576.4,233.6 -432.4,763.8 -432.4,763.8 247.8,382 595.2,-10.7 704.7,-51.6 918.6,-381.1 1394.6,-1031.8 1084,-1892.7"
         style="fill:#1d3f70;fill-opacity:1;fill-rule:nonzero;stroke:none"
         id="path210" />
      <path
         d="m 14084.5,8260.4 c 664.1,1455.8 452.1,1967.9 -704.2,2622.6 -9.4,4.7 -1.2,21.4 8.7,15.1 1136.4,-634.8 1414.6,-1208.7 695.5,-2637.7"
         style="fill:#163356;fill-opacity:1;fill-rule:nonzero;stroke:none"
         id="path212" />
      <path
         d="m 14920.3,8576.1 c 192.5,987 342.8,1920.5 -1046.3,2436.2 -10.3,2.9 -5.1,20.7 5.7,16.4 1364.9,-503 1293.6,-1471 1040.6,-2452.6"
         style="fill:#163356;fill-opacity:1;fill-rule:nonzero;stroke:none"
         id="path214" />
      <path
         d="m 14256.4,8257.1 c -16.6,-37.6 -32.2,-73.7 -46.8,-107.9 0,0 -373.4,13.8 -539.9,228.6 0,0 15.9,38.2 39.4,103.1 0,0 183.7,-239.3 547.3,-223.8"
         style="fill:#163356;fill-opacity:1;fill-rule:nonzero;stroke:none"
         id="path216" />
      <path
         d="m 15101.8,8600.7 c -16.1,-71.2 -27.8,-113.8 -28.7,-118.1 0,0 -231.8,-24 -529.3,53 2.7,27.4 6.5,63.3 10.6,105.8 h 0.1 c 0,0 293.2,-93.2 547.3,-40.7"
         style="fill:#163356;fill-opacity:1;fill-rule:nonzero;stroke:none"
         id="path218" />
      <path
         d="m 14651.8,8155.9 c 1.8,-27.2 15.6,-58.1 47.1,-57.2 l 576.8,5.2 c 29.8,0.2 50.7,30.3 39.9,58 -23,62.7 -118.9,170.1 -414.3,164.3 -39.3,-0.8 -90,-14 -219.3,2.4 0,0 -43.7,-70 -30.2,-172.7"
         style="fill:#eb5648;fill-opacity:1;fill-rule:nonzero;stroke:none"
         id="path220" />
      <path
         d="m 15137.5,8180.6 c -1.5,0 -3.1,0.3 -4.6,0.9 -6.3,2.5 -9.4,9.6 -6.9,15.9 25.7,65 74.7,85.4 76.7,86.3 6.4,2.5 13.5,-0.5 16,-6.8 2.5,-6.2 -0.5,-13.4 -6.7,-15.9 v 0 c -1.7,-0.7 -41.5,-17.8 -63.2,-72.6 -1.9,-4.8 -6.4,-7.7 -11.3,-7.8"
         style="fill:#e8c0a6;fill-opacity:1;fill-rule:nonzero;stroke:none"
         id="path222" />
      <path
         d="m 15042.2,8191.3 c -1.2,0 -2.4,0.1 -3.7,0.5 -6.4,1.9 -10.1,8.8 -8.2,15.2 22,73.2 83.9,106.7 86.5,108.1 6,3.2 13.4,0.9 16.5,-5.1 3.2,-5.9 1,-13.3 -5,-16.5 -0.6,-0.3 -55.6,-30.4 -74.5,-93.5 -1.6,-5.3 -6.4,-8.7 -11.6,-8.7"
         style="fill:#e8c0a6;fill-opacity:1;fill-rule:nonzero;stroke:none"
         id="path224" />
      <path
         d="m 14933.7,8203.6 c -1.4,0 -2.7,0.2 -4.1,0.6 -6.4,2.2 -9.8,9.2 -7.6,15.6 25,73.9 82.4,113.3 84.8,114.9 5.6,3.8 13.2,2.3 17,-3.3 3.8,-5.6 2.3,-13.2 -3.3,-17 -0.5,-0.3 -53,-36.6 -75.3,-102.5 -1.7,-5 -6.4,-8.3 -11.5,-8.3"
         style="fill:#e8c0a6;fill-opacity:1;fill-rule:nonzero;stroke:none"
         id="path226" />
      <path
         d="m 15315.6,8161.9 -663.8,-6 c 2.7,-20.2 8.4,-39.8 18.7,-57.4 l 605.2,5.4 c 29.4,0.3 50.2,29.4 40.2,57 -0.1,0.3 -0.2,0.7 -0.3,1"
         style="fill:#ce3932;fill-opacity:1;fill-rule:nonzero;stroke:none"
         id="path228" />
      <path
         d="m 13711.6,7891.8 c -6.8,-26.4 -3.2,-60.1 27.1,-69 l 550.2,-173.2 c 28.4,-9 57.5,13.1 55.8,42.8 -2.5,66.7 -43.2,197.7 -344,284.7 -37.8,10.9 -89.1,14 -207.1,69.6 0,0 -63.2,-53.1 -82,-154.9"
         style="fill:#eb5648;fill-opacity:1;fill-rule:nonzero;stroke:none"
         id="path230" />
      <path
         d="m 14181.1,7765.2 c -1.4,0.5 -2.8,1.2 -4.1,2.3 -5.2,4.3 -5.9,12 -1.6,17.2 44.5,53.9 97.4,58.2 99.6,58.4 6.8,0.4 12.6,-4.7 13.1,-11.4 0.5,-6.7 -4.6,-12.5 -11.3,-13 v 0 c -1.8,-0.2 -45,-4.1 -82.5,-49.6 -3.3,-3.9 -8.5,-5.3 -13.2,-3.9"
         style="fill:#e8c0a6;fill-opacity:1;fill-rule:nonzero;stroke:none"
         id="path232" />
      <path
         d="m 14093.7,7804.8 c -1.1,0.4 -2.2,0.9 -3.3,1.6 -5.5,3.9 -6.9,11.5 -3.1,17.1 43.5,62.7 112.7,75.5 115.6,76 6.8,1.2 13.1,-3.3 14.2,-9.9 1.2,-6.7 -3.2,-13 -9.9,-14.2 -0.6,-0.1 -62.2,-11.7 -99.7,-65.9 -3.1,-4.5 -8.8,-6.3 -13.8,-4.7"
         style="fill:#e8c0a6;fill-opacity:1;fill-rule:nonzero;stroke:none"
         id="path234" />
      <path
         d="m 13994.4,7850 c -1.3,0.4 -2.5,1.1 -3.7,1.9 -5.4,4 -6.5,11.7 -2.5,17.2 46.7,62.6 113.4,82.2 116.2,83 6.5,1.9 13.3,-1.8 15.2,-8.3 1.8,-6.5 -1.9,-13.3 -8.4,-15.2 -0.6,-0.2 -61.8,-18.4 -103.3,-74.2 -3.2,-4.3 -8.7,-5.9 -13.5,-4.4"
         style="fill:#e8c0a6;fill-opacity:1;fill-rule:nonzero;stroke:none"
         id="path236" />
      <path
         d="m 14344.7,7692.4 -633.1,199.4 c -3.8,-20 -4.3,-40.5 0,-60.4 l 577.3,-181.8 c 28,-8.9 56.8,12.4 55.8,41.8 0,0.3 0,0.7 0,1"
         style="fill:#ce3932;fill-opacity:1;fill-rule:nonzero;stroke:none"
         id="path238" />
      <path
         d="m 13027.3,12198.4 c -664.3,498.7 -790.2,1161.6 -559.9,1932 33.8,107.8 198,67.7 178.7,-43.3 -64.7,-623.6 176.9,-1129.6 773.1,-1415.4 -0.2,0.2 -80.7,-655.7 -391.9,-473.3"
         style="fill:#f99370;fill-opacity:1;fill-rule:nonzero;stroke:none"
         id="path240" />
      <path
         d="m 12670.9,14381.6 c -32.8,3.4 -28.2,-74.9 -47.8,-97.8 -27.7,45.3 -42.6,98.9 -42.9,99 -5.8,65.5 -8,131.2 -7.2,197 -49.6,86.8 -47.6,-164.8 -51.9,-189.4 -0.3,-0.1 -0.6,-0.2 -1,-0.2 -20.2,65.8 -36.8,132.9 -47.7,200.9 -70.6,77.8 -7.4,-195.4 -4.1,-221.3 -0.1,-0.1 -0.3,-0.2 -0.4,-0.3 -29.5,58.7 -51.8,121.1 -67.2,185 -78.2,72.1 7.6,-200.5 19.2,-224.2 -0.1,-0.2 -0.3,-0.4 -0.5,-0.6 -29.9,42.7 -54.3,89.3 -76.1,136.7 -82.4,56.7 25.3,-168.6 38.3,-189.1 1.9,-18.7 38,-127.2 76.1,-180.2 22.5,-31.2 171.2,-43.6 188.4,-10 33.2,64.9 37.9,136.5 35.7,153.8 -5.3,40 22.9,119.6 -10.9,140.7"
         style="fill:#f99370;fill-opacity:1;fill-rule:nonzero;stroke:none"
         id="path242" />
      <path
         d="m 13438.7,12716.8 c -41.5,-427.6 -351.3,-693.7 -457.6,-743.3 -4.5,-2 -8.6,-3.8 -12.3,-5 -192.2,81.6 -311.2,295.3 -424.8,459.6 -29.5,42.1 -55.8,85.2 -79.2,129 -0.1,0.1 -0.2,0.2 -0.2,0.2 -257.7,480.4 -171.4,1047.8 -32.3,1445 83.6,-37.1 206.2,-5.6 206.2,-5.6 8.9,-815.9 417.6,-1107.4 800.2,-1279.9"
         style="fill:#3a72aa;fill-opacity:1;fill-rule:nonzero;stroke:none"
         id="path244" />
      <path
         d="m 12411,13935.6 c 95.9,-44.2 225,-7.5 229,-6.3 -0.9,22 -1.4,44.5 -1.5,67.4 0,0 -122.6,-31.5 -206.3,5.6 0,0 -8.6,-24.2 -21.2,-66.7"
         style="fill:#e8c0a6;fill-opacity:1;fill-rule:nonzero;stroke:none"
         id="path246" />
      <path
         d="m 13734.9,12140.7 c 824.6,99.7 1265.2,610.8 1450.9,1393.2 24.7,110.2 -137.6,157.6 -176.4,51.9 -259.3,-565.9 -622.9,-945.1 -1281.6,-893.7 0.3,0.1 0.9,0.2 1.1,0.2 -360.8,-5.5 -354.7,-554 6,-551.6"
         style="fill:#f99370;fill-opacity:1;fill-rule:nonzero;stroke:none"
         id="path248" />
      <path
         d="m 15148.9,13856.3 c 30.1,-13.5 -13,-79 -7.5,-108.6 46.6,25.4 86.3,64.4 86.7,64.3 37.7,53.9 72.5,109.7 104.7,167 86.4,50.4 -41.2,-166.5 -49.8,-190 0.3,-0.2 0.5,-0.4 0.8,-0.6 50.4,46.9 98.3,96.6 141.8,150.1 100,32.1 -91.3,-172.9 -107.1,-193.7 0,-0.1 0.1,-0.3 0.2,-0.4 54.9,36 105.4,78.9 150.7,126.5 103.7,23.4 -106.9,-169.8 -128.8,-184.5 0.1,-0.3 0.1,-0.5 0.2,-0.8 47.2,22.1 91.6,50.2 134.2,80.3 99.8,7.9 -106.1,-133.3 -127.7,-144.6 -11,-15.2 -73,-64.7 -166.8,-109.3 -34.7,-16.5 -177.6,36.5 -171.1,73.8 6.1,34.9 50.2,137.1 57.2,153.1 8.7,33.4 42.5,116 82.3,117.4"
         style="fill:#f99370;fill-opacity:1;fill-rule:nonzero;stroke:none"
         id="path250" />
      <path
         d="m 15162.3,13441.6 c -38.6,-225.7 -236.6,-746.6 -600,-1105.5 -3.5,-3.6 -7.3,-7.4 -11.7,-11.3 -16.5,-16 -33.3,-31.8 -50.6,-47.1 -217.9,-193.7 -452.4,-286 -452.4,-286 l -37.2,69.1 -350.6,649.9 c 477.1,-65.6 973.3,236.9 1284.7,751.8 v 0.1 c 11.7,18.6 22.8,36.9 33.4,54.9 0,0 58.9,-74.4 184.4,-75.9"
         style="fill:#3a72aa;fill-opacity:1;fill-rule:nonzero;stroke:none"
         id="path252" />
      <path
         d="m 14944.5,13462.6 v 0 c 65,-77.5 202.7,-89.3 202.7,-89.3 10.6,43.3 15.2,68.4 15.2,68.4 -125.5,1.4 -184.6,75.9 -184.6,75.9 -10.4,-18.1 -21.6,-36.4 -33.3,-55"
         style="fill:#e8c0a6;fill-opacity:1;fill-rule:nonzero;stroke:none"
         id="path254" />
      <path
         d="m 13659.6,12710.8 c 16.9,118.7 2.9,291.3 -11.7,362.1 -26.2,140.2 -248.9,92.3 -215.9,-45.7 7.3,4.3 23.2,-248.9 5.5,-318.6 -209.4,-56.5 409.6,-278.2 222.1,2.2"
         style="fill:#f99370;fill-opacity:1;fill-rule:nonzero;stroke:none"
         id="path256" />
      <path
         d="m 13430.2,13038.8 c 0.2,-1.7 0.4,-3.3 0.6,-5 0.4,-2.2 0.7,-4.4 1.2,-6.6 5.2,3.2 15.8,-136.5 13.2,-237.6 94,-45.8 200.6,-29.7 220.1,-26.3 7.2,106.8 -5.9,239.8 -13.2,289.6 -2.2,11.7 -3.9,18.6 -4.2,20 -0.7,3.2 -1.5,6.3 -2.5,9.3 -9.7,32 -33.1,56.8 -62.2,69.2 -0.1,0 -0.1,0 -0.1,0 -20.2,8.6 -43.1,11.2 -66.2,6.3 -22.8,-4.9 -42.5,-16.5 -57.4,-32.4 -0.6,-0.6 -1.2,-1.3 -1.8,-1.9 -20.1,-22.5 -30.8,-53 -27.5,-84.6"
         style="fill:#e57d61;fill-opacity:1;fill-rule:nonzero;stroke:none"
         id="path258" />
      <path
         d="m 13837,13322.2 c 0,0 -19.8,130.8 -72.9,215.7 l -70,-46.9 142.9,-168.8"
         style="fill:#c92828;fill-opacity:1;fill-rule:nonzero;stroke:none"
         id="path260" />
      <path
         d="m 14550.6,12324.8 c -16.5,-16 -33.3,-31.8 -50.6,-47.1 -217.9,-193.7 -452.4,-286 -452.4,-286 l -37.2,69.1 51.3,260.8 c 0,0 95.7,-163.5 189.5,-149 87.9,13.5 235.1,94.3 299.4,152.2"
         style="fill:#23659b;fill-opacity:1;fill-rule:nonzero;stroke:none"
         id="path262" />
      <path
         d="m 12981.1,11973.5 c -4.5,-2 -8.6,-3.8 -12.3,-5 -192.2,81.6 -311.2,295.3 -424.8,459.6 -29.5,42.1 -55.8,85.2 -79.2,129 7.1,-8.8 234.2,-290 409.1,-312.7 l 107.2,-270.9"
         style="fill:#23659b;fill-opacity:1;fill-rule:nonzero;stroke:none"
         id="path264" />
      <path
         d="m 13890.8,12939 c -76.9,-102.4 -211,-146.6 -324.1,-137.7 -35.3,2.2 -69.5,9.8 -101,24 h -0.1 c -10.6,4.8 -20.8,10.2 -30.7,16.4 l -0.1,-0.1 c -475.1,364.9 0.5,1130.8 340.7,564 110.4,-157.6 275.2,-227.9 115.3,-466.6"
         style="fill:#f99370;fill-opacity:1;fill-rule:nonzero;stroke:none"
         id="path266" />
      <path
         d="m 13801.1,13074.5 -155.3,54.7 c 0,0 2,-80.3 62.4,-94.1 57.7,-13.2 92.9,39.4 92.9,39.4"
         style="fill:#f9f8f3;fill-opacity:1;fill-rule:nonzero;stroke:none"
         id="path268" />
      <path
         d="m 13664.6,13256.3 c 3.1,8.8 -1.5,18.4 -10.3,21.5 -8.9,3.1 -18.5,-1.5 -21.6,-10.4 -3.1,-8.8 1.5,-18.4 10.4,-21.5 8.8,-3.1 18.4,1.5 21.5,10.4"
         style="fill:#c16256;fill-opacity:1;fill-rule:nonzero;stroke:none"
         id="path270" />
      <path
         d="m 13802.6,13298.8 c 3.1,8.8 -1.6,18.5 -10.4,21.6 -8.8,3.1 -18.5,-1.6 -21.6,-10.4 -3.1,-8.8 1.6,-18.5 10.4,-21.6 8.8,-3 18.5,1.6 21.6,10.4"
         style="fill:#c16256;fill-opacity:1;fill-rule:nonzero;stroke:none"
         id="path272" />
      <path
         d="m 13802.7,13068.3 c -1.2,-0.3 -2.5,-0.3 -3.7,0.1 l -155.3,54.8 c -3.3,1.2 -5.1,4.8 -3.9,8.1 1.2,3.4 4.9,5.1 8.2,3.9 l 155.3,-54.7 c 3.3,-1.2 5,-4.8 3.9,-8.2 -0.8,-2 -2.5,-3.5 -4.5,-4"
         style="fill:#c16256;fill-opacity:1;fill-rule:nonzero;stroke:none"
         id="path274" />
      <path
         d="m 13778.3,13147.8 c -9.7,-2.5 -19.8,-3.3 -28.6,-1.7 -3.5,0.6 -5.8,3.9 -5.2,7.4 0.6,3.5 4,5.8 7.4,5.2 22.2,-4 51,10.7 53.8,20.9 1,3.6 -4,6.3 -8.4,8 -38.6,14.6 -71.9,79.5 -73.2,82.2 -1.6,3.2 -0.4,7 2.8,8.6 3.2,1.7 7,0.4 8.6,-2.8 0.3,-0.6 32.4,-63.2 66.4,-76.1 18.5,-7 17.4,-18.6 16.1,-23.3 -3.3,-12.3 -20.7,-23.5 -39.7,-28.4"
         style="fill:#c16256;fill-opacity:1;fill-rule:nonzero;stroke:none"
         id="path276" />
      <path
         d="m 13750.4,13444.6 c -97.4,35.7 -256.5,-30.2 -337.6,-40.4 0,0 35.8,-136.2 -90.8,-253.7 5.4,-129 -8.1,-187.4 143.7,-325.2 h -0.1 c -10.6,4.8 -20.8,10.2 -30.7,16.4 l -0.1,-0.1 c -456.9,347.4 -24.5,1103.5 315.6,603"
         style="fill:#e57d61;fill-opacity:1;fill-rule:nonzero;stroke:none"
         id="path278" />
      <path
         d="m 13782.1,13729.9 c -66.1,95.9 -228.5,131 -345.1,-14.2 -89.8,-111.9 -201.1,-126.1 -185,-229 -193.9,-121.6 -60.8,-335.3 -60.8,-335.3 l 101.9,26.2 c 105.4,111.6 82.9,251.8 82.9,251.8 h -0.1 c 26.6,2.3 54.2,7.1 78,16.7 73.6,29.8 185.1,54.3 275.2,34.3 90.2,-20.1 126.9,142.3 53,249.5"
         style="fill:#c92828;fill-opacity:1;fill-rule:nonzero;stroke:none"
         id="path280" />
      <path
         d="m 13187.7,13066 c 18.3,-51.7 66.9,-81.6 108.6,-66.8 41.6,14.8 60.4,68.6 42.1,120.3 -18.4,51.6 -67,81.5 -108.6,66.8 -41.6,-14.8 -60.5,-68.7 -42.1,-120.3"
         style="fill:#f99370;fill-opacity:1;fill-rule:nonzero;stroke:none"
         id="path282" />
      <path
         d="m 13279.9,13150.1 c -1.8,0.4 -43.1,10.3 -62.4,-13.1 -4.9,-6 -7.7,-13.5 -8.7,-22.4 0,0 0,0 0,0 -0.1,-0.9 -0.3,-1.6 -0.3,-2.5 0,0 0,0 0,0 0,0 0,0 0,0 -1,-16.5 4.3,-37.5 16,-63.1 1.3,-2.8 4.5,-4.3 7.4,-3.5 0.4,0.1 0.7,0.2 1.1,0.3 3.2,1.5 4.6,5.3 3.1,8.5 -9.4,20.8 -14.3,38 -14.8,51.4 37.5,-1.6 61.4,-40.1 61.6,-40.5 1.5,-2.5 4.4,-3.6 7.1,-2.9 0.6,0.1 1.1,0.3 1.7,0.7 3,1.8 4,5.7 2.2,8.7 -1.1,2 -27.2,45.1 -71.3,47.2 1,3.8 2.5,7.2 4.8,9.9 14.2,17.2 49.1,8.9 49.4,8.8 3.5,-0.8 6.9,1.3 7.8,4.7 0.8,3.5 -1.3,6.9 -4.7,7.8"
         style="fill:#c16256;fill-opacity:1;fill-rule:nonzero;stroke:none"
         id="path284" />
      <path
         d="m 13352.6,13052.5 -57,37.8 c -0.2,2.6 -0.6,5.1 -1.6,7.6 -5.5,14.9 -22.1,22.5 -37,16.9 -14.9,-5.6 -22.5,-22.2 -16.9,-37 5.4,-14.5 21.3,-21.9 35.8,-17.2 l 56.9,-37.8 c 4.4,-2.9 9.6,-3.6 14.3,-2.4 4.2,1.1 7.9,3.6 10.5,7.4 5.4,8.2 3.2,19.3 -5,24.7"
         style="fill:#fdffde;fill-opacity:1;fill-rule:nonzero;stroke:none"
         id="path286" />
      <path
         d="m 14233.2,11035.4 c 0,0 -551.8,-229.5 -1452,-62.8 0,0 -0.5,24 -0.7,65.7 -1.3,177.6 0.4,677.5 51.9,1017.6 0,0 52.9,287.6 118.5,423.9 198.9,413.7 487.7,237.1 487.7,237.1 56.5,-150.2 213.7,-280.8 213.7,-280.8 43.8,146.7 9,267.5 7.5,274.6 228.3,-77 420.5,-274.3 475.8,-671 25.9,-185.9 141.6,-640.8 135.8,-872.6 -1.6,-65.1 -12.8,-112.7 -38.2,-131.7"
         style="fill:#3a72aa;fill-opacity:1;fill-rule:nonzero;stroke:none"
         id="path288" />
      <path
         d="m 13739.3,12708.7 c 0,0 24.5,-225.8 -70.3,-347.9 0,0 -237.3,109.2 -300.6,391.2 0,0 33.8,-3.5 70.2,-35.1 0,0 99.2,-171.3 204.8,-259 0,0 36.2,91.5 16.3,252.8 0,0 42.7,12.9 79.6,-2"
         style="fill:#e8c0a6;fill-opacity:1;fill-rule:nonzero;stroke:none"
         id="path290" />
      <path
         d="m 12589.3,12516 c 1.8,-2.7 3.6,-5.3 5.5,-8 -1.8,2.9 -3.6,5.6 -5.5,8"
         style="fill:#a523a2;fill-opacity:1;fill-rule:nonzero;stroke:none"
         id="path292" />
      <path
         d="m 13568.8,13283.5 c 2.8,-0.1 5.7,1.4 7.2,4.1 26.5,46.4 73.9,55.2 74.3,55.3 4.4,0.7 7.4,4.9 6.6,9.3 -0.7,4.4 -4.9,7.3 -9.3,6.6 -2.2,-0.4 -55.2,-10 -85.6,-63.2 -2.2,-3.9 -0.9,-8.8 3,-11 1.2,-0.7 2.5,-1 3.8,-1.1"
         style="fill:#c16256;fill-opacity:1;fill-rule:nonzero;stroke:none"
         id="path294" />
      <path
         d="m 13700.7,13366.5 c 1.5,0 2.9,0.3 4.3,1.1 43.4,24.7 71,6.6 71.3,6.4 3.7,-2.5 8.7,-1.6 11.2,2.1 2.5,3.7 1.6,8.7 -2.1,11.2 -1.5,1 -36.3,24 -88.4,-5.7 -3.9,-2.2 -5.3,-7.1 -3.1,-11 1.5,-2.6 4.1,-4 6.8,-4.1"
         style="fill:#c16256;fill-opacity:1;fill-rule:nonzero;stroke:none"
         id="path296" />
      <path
         d="m 14233.2,11035.4 c 0,0 -551.8,-229.5 -1452,-62.8 0,0 -0.5,24 -0.7,65.7 l 13.2,10.7 c 0,0 1045.6,-149.2 1477.7,118.1 -1.6,-65.1 -12.8,-112.7 -38.2,-131.7"
         style="fill:#e8c0a6;fill-opacity:1;fill-rule:nonzero;stroke:none"
         id="path298" />
      <path
         d="m 12418.2,3179.7 c 0,0 13.9,1872.2 -1263.2,2535.4 C 9878.01,6378.3 9248.58,5251 9563.3,4364.8 c 0,0 -423.42,590.4 -1249.41,546.2 -825.99,-44.1 -685.4,-799.8 -421.78,-1028.3 0,0 -615.1,495 -1704.71,168.4 -1089.61,-326.6 0,-871.4 0,-871.4 h 6230.8"
         style="fill:#4867aa;fill-opacity:1;fill-rule:nonzero;stroke:none"
         id="path300" />
      <path
         d="m 14957.4,3179.7 c 0,0 -13.9,1872.2 1263.1,2535.4 1277.1,663.2 1906.5,-464.1 1591.8,-1350.3 0,0 423.4,590.4 1249.4,546.2 826,-44.1 685.4,-799.8 421.8,-1028.3 0,0 615.1,495 1704.7,168.4 1089.6,-326.6 0,-871.4 0,-871.4 h -6230.8"
         style="fill:#4867aa;fill-opacity:1;fill-rule:nonzero;stroke:none"
         id="path302" />
      <path
         d="m 6722,3062.6 c 0,0 126.96,621.1 993.96,397.5 866.99,-223.6 878.55,468.9 1429.29,526.3 550.75,57.4 902.25,-476.6 1347.45,-128.9 445.2,347.8 585.8,832.2 1335.6,857.1 749.9,24.8 939.9,-760.8 1547.9,-728.2 607.9,32.6 972.9,839.6 1748.9,926.6 885.9,99.4 1319.4,-433.7 1624.1,-1024.1 304.6,-590.3 1300.5,300.9 1874.6,97.5 574.1,-203.4 480.3,-501.5 843.5,-526.3 363.2,-24.9 972.5,409.9 1335.7,211.1 363.2,-198.7 70.3,-608.6 70.3,-608.6 H 6722"
         style="fill:#eef7ff;fill-opacity:1;fill-rule:nonzero;stroke:none"
         id="path304" />
    </g>
  </g>
</svg>
